<svg xmlns="http://www.w3.org/2000/svg" xmlns:xlink="http://www.w3.org/1999/xlink" xmlns:lucid="lucid" width="1802.85" height="1331"><g transform="translate(-1137.1465527853431 -369)" lucid:page-tab-id="0_0"><path d="M1000 0h2000v2000H1000z" fill="#fafafa"/><path d="M1648 625.17c19.88 0 36 16.4 36 36.63 0 20.22-16.12 36.62-36 36.62h-108c-19.88 0-36-16.4-36-36.62 0-20.23 16.12-36.63 36-36.63z" stroke="#000" stroke-opacity="0" fill="#333"/><use xlink:href="#a" transform="matrix(1,0,0,1,1509.0000000000005,630.1723880216507) translate(21.75 34.4)"/><use xlink:href="#b" transform="matrix(1,0,0,1,1509.0000000000005,630.1723880216507) translate(105.3 34.4)"/><path d="M1157.15 397c0-4.42 3.58-8 8-8h836.75c4.4 0 8 3.58 8 8v25.16c0 4.4-3.6 8-8 8h-836.75c-4.42 0-8-3.6-8-8z" stroke="#000" stroke-opacity="0" stroke-width="2" fill="#fff" fill-opacity="0"/><use xlink:href="#c" transform="matrix(1,0,0,1,1161.1465527853431,393) translate(259.5174074074074 25.782777777777778)"/><use xlink:href="#d" transform="matrix(1,0,0,1,1161.1465527853431,393) translate(332.1383950617284 25.782777777777778)"/><use xlink:href="#e" transform="matrix(1,0,0,1,1161.1465527853431,393) translate(364.0420987654321 25.782777777777778)"/><use xlink:href="#f" transform="matrix(1,0,0,1,1161.1465527853431,393) translate(436.6630864197531 25.782777777777778)"/><use xlink:href="#g" transform="matrix(1,0,0,1,1161.1465527853431,393) translate(468.5667901234568 25.782777777777778)"/><path d="M1413.44 428.8h347.9M1413.47 428.8h-1.03M1761.3 428.8h1.03" stroke="#a9afb8" stroke-width="2" fill="none"/><path d="M1157.15 438.16c0-4.42 3.58-8 8-8h837.7c4.42 0 8 3.58 8 8V441c0 4.42-3.58 8-8 8h-837.7c-4.42 0-8-3.58-8-8z" stroke="#000" stroke-opacity="0" stroke-width="2" fill="#fff" fill-opacity="0"/><use xlink:href="#h" transform="matrix(1,0,0,1,1161.1465527853436,434.1552239568988) translate(228.6266152263375 14.917037037037037)"/><use xlink:href="#i" transform="matrix(1,0,0,1,1161.1465527853436,434.1552239568988) translate(243.07311728395067 14.917037037037037)"/><use xlink:href="#j" transform="matrix(1,0,0,1,1161.1465527853436,434.1552239568988) translate(260.02651234567907 14.917037037037037)"/><use xlink:href="#k" transform="matrix(1,0,0,1,1161.1465527853436,434.1552239568988) translate(315.178158436214 14.917037037037037)"/><use xlink:href="#l" transform="matrix(1,0,0,1,1161.1465527853436,434.1552239568988) translate(360.1747633744856 14.917037037037037)"/><use xlink:href="#m" transform="matrix(1,0,0,1,1161.1465527853436,434.1552239568988) translate(411.9272325102881 14.917037037037037)"/><use xlink:href="#n" transform="matrix(1,0,0,1,1161.1465527853436,434.1552239568988) translate(505.4045987654321 14.917037037037037)"/><use xlink:href="#o" transform="matrix(1,0,0,1,1161.1465527853436,434.1552239568988) translate(517.8540843621399 14.917037037037037)"/><use xlink:href="#p" transform="matrix(1,0,0,1,1161.1465527853436,434.1552239568988) translate(564.5077880658437 14.917037037037037)"/><use xlink:href="#q" transform="matrix(1,0,0,1,1161.1465527853436,434.1552239568988) translate(590.0016152263374 14.917037037037037)"/><path d="M1444 486.42c0-4.42 3.58-8 8-8h264c4.42 0 8 3.58 8 8v78.7c0 4.43-3.58 8-8 8h-264c-4.42 0-8-3.57-8-8z" stroke="#000" stroke-opacity="0" stroke-width="2" fill="#19967d"/><use xlink:href="#r" transform="matrix(1,0,0,1,1449,483.42238802160136) translate(27.18611111111113 46.295833333333334)"/><use xlink:href="#s" transform="matrix(1,0,0,1,1449,483.42238802160136) translate(144.28425925925927 46.295833333333334)"/><path d="M1393.6 728.2c3.53-2.64 9.27-2.64 12.8 0l67.2 50.4c3.53 2.66 3.53 6.96 0 9.6l-67.2 50.4c-3.53 2.66-9.27 2.66-12.8 0l-67.2-50.4c-3.53-2.64-3.53-6.94 0-9.6z" stroke="#3aa6dd" stroke-width="4" fill="#fff"/><use xlink:href="#t" transform="matrix(1,0,0,1,1325,728.4069569087867) translate(14.079999999999993 59.0875)"/><path d="M1873.6 724.8c3.53-2.65 9.27-2.65 12.8 0l67.2 50.4c3.53 2.65 3.53 6.95 0 9.6l-67.2 50.4c-3.53 2.65-9.27 2.65-12.8 0l-67.2-50.4c-3.53-2.65-3.53-6.95 0-9.6z" stroke="#c92d39" stroke-width="4" fill="#fff"/><use xlink:href="#u" transform="matrix(1,0,0,1,1805,725) translate(27.079999999999995 48.775)"/><use xlink:href="#v" transform="matrix(1,0,0,1,1805,725) translate(68.03 48.775)"/><use xlink:href="#w" transform="matrix(1,0,0,1,1805,725) translate(63.53 70.375)"/><path d="M2080 731.4c0-4.4 3.58-8 8-8h144c4.42 0 8 3.6 8 8v104c0 4.43-3.58 8-8 8h-144c-4.42 0-8-3.57-8-8z" stroke="#000" stroke-opacity="0" stroke-width="2" fill="#ff8f80"/><use xlink:href="#x" transform="matrix(1,0,0,1,2085,728.4069569087867) translate(22.64999999999999 59.0875)"/><path d="M1987.12 780.5h-28.48v-1h28.48zm76.5 0h-12.6v-1h12.6z" fill="#333"/><path d="M1958.66 780.5h-.54l.04-1h.5zM2078.38 780l-14.26 4.64v-9.28z" fill="#333"/><path d="M2080 780l-16.38 5.32v-10.64zm-15.38 3.95l12.14-3.95-12.14-3.95z" fill="#333"/><use xlink:href="#y" transform="matrix(1,0,0,1,1987.12112936995,769.2) translate(0.004999999999999005 14.4)"/><use xlink:href="#z" transform="matrix(1,0,0,1,1987.12112936995,769.2) translate(40.955 14.4)"/><path d="M1920 888c0-4.42 3.58-8 8-8h144c4.42 0 8 3.58 8 8v104c0 4.42-3.58 8-8 8h-144c-4.42 0-8-3.58-8-8z" stroke="#000" stroke-opacity="0" stroke-width="2" fill="#19967d"/><use xlink:href="#A" transform="matrix(1,0,0,1,1925,885) translate(24.599999999999994 59.0875)"/><path d="M1996.02 859.04l3.12 1.27 1.36 3.1v.2l-.78.02-.18.08-.03-.08v-.02l-1.1-2.52-2.57-1.04h-28.38v-1zm-115.12-8.5l1.14 2.74 1.83 2.4 2.4 1.83 2.75 1.15 3 .4h20.53v1h-20.58l-3.2-.43-3-1.24-2.6-2-2-2.6-1.25-3-.42-3.2v-8h1v7.93z" fill="#333"/><path d="M1880.5 839.1v.5h-1v-.52zM2000 878.38l-4.64-14.26h9.28z" fill="#333"/><path d="M2000 880l-5.32-16.38h10.64zm-3.95-15.38l3.95 12.14 3.95-12.14z" fill="#333"/><use xlink:href="#y" transform="matrix(1,0,0,1,1912.55,848.7431935842346) translate(0.004999999999999005 14.4)"/><use xlink:href="#B" transform="matrix(1,0,0,1,1912.55,848.7431935842346) translate(40.955 14.4)"/><path d="M1800 1044.6c0-4.43 3.58-8 8-8h144c4.42 0 8 3.57 8 8v104c0 4.4-3.58 8-8 8h-144c-4.42 0-8-3.6-8-8z" stroke="#000" stroke-opacity="0" stroke-width="2" fill="#19967d"/><use xlink:href="#C" transform="matrix(1,0,0,1,1805,1041.5930430912133) translate(55.025 59.0875)"/><path d="M2120 986.42c0-4.42 3.58-8 8-8h144c4.42 0 8 3.58 8 8v104c0 4.42-3.58 8-8 8h-144c-4.42 0-8-3.58-8-8z" stroke="#000" stroke-opacity="0" stroke-width="2" fill="#19967d"/><use xlink:href="#D" transform="matrix(1,0,0,1,2125,983.4223880216014) translate(47.074999999999996 59.0875)"/><path d="M1919.5 940H1892c-6.63 0-12 5.37-12 12v68.2" stroke="#333" fill="none"/><path d="M1920 940.5h-.5v-1h.5z" fill="#333"/><path d="M1880 1034.98l-4.64-14.27h9.28z" stroke="#333" fill="#333"/><path d="M2080.5 940H2188c6.63 0 12 5.37 12 12v10.04" stroke="#333" fill="none"/><path d="M2080.5 940.5h-.5v-1h.5z" fill="#333"/><path d="M2200 976.8l-4.64-14.26h9.28z" stroke="#333" fill="#333"/><path d="M2320 1155.84c0-4.4 3.58-8 8-8h144c4.42 0 8 3.6 8 8v104c0 4.42-3.58 8-8 8h-144c-4.42 0-8-3.58-8-8z" stroke="#000" stroke-opacity="0" stroke-width="2" fill="#19967d"/><use xlink:href="#E" transform="matrix(1,0,0,1,2325,1152.8447760432027) translate(15.099999999999994 59.0875)"/><use xlink:href="#F" transform="matrix(1,0,0,1,2325,1152.8447760432027) translate(80.05 59.0875)"/><path d="M2360 1361.92c0-4.42 3.58-8 8-8h144c4.42 0 8 3.58 8 8v104c0 4.42-3.58 8-8 8h-144c-4.42 0-8-3.58-8-8z" stroke="#000" stroke-opacity="0" stroke-width="2" fill="#19967d"/><use xlink:href="#G" transform="matrix(1,0,0,1,2365,1358.9223880216014) translate(18.125 59.0875)"/><use xlink:href="#F" transform="matrix(1,0,0,1,2365,1358.9223880216014) translate(77.025 59.0875)"/><path d="M2119.5 1038.42H2092c-6.63 0-12 5.37-12 12V1288c0 6.63 5.37 12 12 12h336c6.63 0 12 5.37 12 12v25.54" stroke="#333" fill="none"/><path d="M2120 1038.92h-.5v-1h.5z" fill="#333"/><path d="M2440 1352.3l-4.64-14.26h9.28z" stroke="#333" fill="#333"/><path d="M2200 1098.92v12.2c0 6.64 5.37 12 12 12h179.67c4.6 0 8.33 3.74 8.33 8.34" stroke="#333" fill="none"/><path d="M2200.5 1098.94h-1v-.52h1z" fill="#333"/><path d="M2400 1146.23l-4.64-14.27h9.28z" stroke="#333" fill="#333"/><path d="M1920 1346.3c0-4.42 3.58-8 8-8h144c4.42 0 8 3.58 8 8v104c0 4.4-3.58 8-8 8h-144c-4.42 0-8-3.6-8-8z" stroke="#000" stroke-opacity="0" stroke-width="2" fill="#19967d"/><use xlink:href="#H" transform="matrix(1,0,0,1,1925,1343.2965215456065) translate(6.125 59.0875)"/><use xlink:href="#I" transform="matrix(1,0,0,1,1925,1343.2965215456065) translate(103.92500000000001 59.0875)"/><path d="M2160 1361.92c0-4.42 3.58-8 8-8h144c4.42 0 8 3.58 8 8v104c0 4.42-3.58 8-8 8h-144c-4.42 0-8-3.58-8-8z" stroke="#000" stroke-opacity="0" stroke-width="2" fill="#19967d"/><use xlink:href="#J" transform="matrix(1,0,0,1,2165,1358.9223880216014) translate(-8.799999999999997 58.6)"/><path d="M1440 1206c0-3.3 2.7-6 6-6h148c3.3 0 6 2.7 6 6v108c0 3.3-2.7 6-6 6h-148c-3.3 0-6-2.7-6-6z" stroke="#5e5e5e" stroke-width="3" fill="#fff"/><use xlink:href="#K" transform="matrix(1,0,0,1,1452,1212) translate(34.69753086419753 38.77777777777778)"/><use xlink:href="#L" transform="matrix(1,0,0,1,1452,1212) translate(10.685185185185176 65.44444444444446)"/><path d="M2321 1413.92h20.5" stroke="#5e5e5e" stroke-width="2" fill="none"/><path d="M2321.03 1414.92H2320v-2h1.03z" fill="#5e5e5e"/><path d="M2356.76 1413.92l-14.26 4.64v-9.27z" stroke="#5e5e5e" stroke-width="2" fill="#5e5e5e"/><path d="M2288 1600c17.67 0 32 17.9 32 40s-14.33 40-32 40h-96c-17.67 0-32-17.9-32-40s14.33-40 32-40z" stroke="#5e5e5e" stroke-width="3" fill="#fff"/><use xlink:href="#M" transform="matrix(1,0,0,1,2165,1605) translate(41.04938271604939 39.65277777777778)"/><path d="M1440 1006c0-3.3 2.7-6 6-6h148c3.3 0 6 2.7 6 6v108c0 3.3-2.7 6-6 6h-148c-3.3 0-6-2.7-6-6z" stroke="#5e5e5e" stroke-width="3" fill="#fff"/><use xlink:href="#N" transform="matrix(1,0,0,1,1452,1012) translate(19.296296296296283 38.77777777777778)"/><use xlink:href="#O" transform="matrix(1,0,0,1,1452,1012) translate(39.01851851851852 65.44444444444446)"/><path d="M2520 984.42c0-3.3 2.7-6 6-6h148c3.3 0 6 2.7 6 6v108c0 3.32-2.7 6-6 6h-148c-3.3 0-6-2.68-6-6z" stroke="#5e5e5e" stroke-width="3" fill="#fff"/><use xlink:href="#P" transform="matrix(1,0,0,1,2532,990.4223880216014) translate(32.876543209876544 38.77777777777778)"/><use xlink:href="#Q" transform="matrix(1,0,0,1,2532,990.4223880216014) translate(17.444444444444443 65.44444444444446)"/><path d="M2520 846c0-3.3 2.7-6 6-6h148c3.3 0 6 2.7 6 6v108c0 3.3-2.7 6-6 6h-148c-3.3 0-6-2.7-6-6z" stroke="#5e5e5e" stroke-width="3" fill="#fff"/><use xlink:href="#R" transform="matrix(1,0,0,1,2532,852) translate(21.148148148148145 53.77777777777778)"/><path d="M2389.18 685.3c1.56-2.93 5.5-5.3 8.82-5.3h84c3.3 0 7.26 2.37 8.82 5.3l26.36 49.4c1.56 2.93 1.56 7.67 0 10.6l-26.36 49.4c-1.56 2.93-5.5 5.3-8.82 5.3h-84c-3.3 0-7.26-2.37-8.82-5.3l-26.36-49.4c-1.56-2.93-1.56-7.67 0-10.6z" stroke="#5e5e5e" stroke-width="3" fill="#fff"/><use xlink:href="#S" transform="matrix(1,0,0,1,2365,685) translate(37.96796296296296 45.27777777777778)"/><use xlink:href="#Q" transform="matrix(1,0,0,1,2365,685) translate(24.44944444444444 71.94444444444446)"/><path d="M2835.2 1063.6c2.65-2 6.95-2 9.6 0l70.4 52.8c2.65 2 2.65 5.2 0 7.2l-70.4 52.8c-2.65 2-6.95 2-9.6 0l-70.4-52.8c-2.65-2-2.65-5.2 0-7.2z" stroke="#5e5e5e" stroke-width="3" fill="#fff"/><use xlink:href="#T" transform="matrix(1,0,0,1,2765,1065) translate(22.042037037037034 59.02777777777778)"/><use xlink:href="#U" transform="matrix(1,0,0,1,2765,1065) translate(75.005 59.02777777777778)"/><path d="M1680 1326c0-3.3 2.7-6 6-6h148c3.3 0 6 2.7 6 6v108c0 3.3-2.7 6-6 6h-148c-3.3 0-6-2.7-6-6z" stroke="#5e5e5e" stroke-width="3" fill="#fff"/><use xlink:href="#V" transform="matrix(1,0,0,1,1692,1332) translate(6.302469135802461 38.77777777777778)"/><use xlink:href="#W" transform="matrix(1,0,0,1,1692,1332) translate(19.26543209876543 65.44444444444446)"/><path d="M2768 1180c17.67 0 32 17.9 32 40s-14.33 40-32 40h-96c-17.67 0-32-17.9-32-40s14.33-40 32-40z" stroke="#5e5e5e" stroke-width="3" fill="#fff"/><use xlink:href="#X" transform="matrix(1,0,0,1,2645,1185) translate(7.227222222222219 26.52777777777778)"/><use xlink:href="#Y" transform="matrix(1,0,0,1,2645,1185) translate(95.99265432098765 26.52777777777778)"/><use xlink:href="#Z" transform="matrix(1,0,0,1,2645,1185) translate(34.88154320987654 53.19444444444445)"/><path d="M1843.74 663.75l16.97.76 15.15 1.83 3.55 1.35 1.83 1.23 1.2 1.3.88 1.5.66 2.12.32 3.88-1.88 24.84-2-.15 1.88-24.7-.3-3.5-.52-1.7-.65-1.1-.88-.96-1.45-.97-3.1-1.2-14.82-1.77-16.88-.75-2.76-.05v-2zm-37.94-.7v2l-120.82-2.23.04-2z" fill="#5e5e5e"/><path d="M1685.05 660.82l-.04 2-1.07-.02.07-1-.03-1zM1885.95 703.8l-5.7 13.9-3.55-14.6z" fill="#5e5e5e"/><path d="M1887.4 702.92l-7.4 18-4.6-18.9zm-6.9 11.54l4-9.75-6.5-.5z" fill="#5e5e5e"/><use xlink:href="#aa" transform="matrix(1,0,0,1,1805.7992263117603,653.7069743120979) translate(0 14.222222222222223)"/><path d="M1879.98 1157.6l-.24 10.8-1.02 16-2.82 26.18-11.78 90.5-.93 14.5-.24 10.5.16 8.16.42 6.64.58 5.56.7 4.73.78 4.1.84 3.62.9 3.2.93 2.87.96 2.6 1 2.36 1 2.17 1.06 2 1.05 1.83 1.1 1.72 1.1 1.6 1.14 1.5 1.16 1.42 1.2 1.33 1.24 1.26 1.27 1.2 1.32 1.14 1.35 1.08 1.43 1.03 1.48 1 1.55.93 1.63.9 1.72.85 1.8.8 1.93.77 2.06.7 2.2.68 1.62.4" stroke="#5e5e5e" stroke-width="2" fill="none"/><path d="M1880.98 1157.64l-2-.04.02-1h2z" fill="#5e5e5e"/><path d="M1916.78 1397.94l-14.7 3 1.04-9.2z" stroke="#5e5e5e" stroke-width="2" fill="#5e5e5e"/><path d="M1961 1096.6l12.74.28 13.54.85 13.33 1.4 13.1 1.94 12.85 2.45 12.57 2.94 12.27 3.43 11.95 3.87 11.6 4.32 11.28 4.73 10.9 5.13 10.5 5.5 10.13 5.84 9.73 6.17 9.3 6.47 8.9 6.76 8.5 7.02 8.08 7.28 7.66 7.5 7.25 7.72 6.84 7.93 6.43 8.12 6.04 8.3 5.65 8.5 5.25 8.67 4.86 8.84 4.47 9 4.1 9.2 3.7 9.35 3.32 9.54 2.94 9.73 2.53 9.92 2.16 10.13 1.73 10.35 1.34 10.57.76 9.07" stroke="#5e5e5e" stroke-width="2" fill="none"/><path d="M1961.05 1095.6l-.04 2h-1v-2z" fill="#5e5e5e"/><path d="M2239.88 1350.7l-5.15-14.1 9.27-.34z" stroke="#5e5e5e" stroke-width="2" fill="#5e5e5e"/><path d="M2081 1398.28l.95-.02 1.76-.1 1.62-.18 1.48-.22 1.36-.26 1.26-.3 1.18-.33 1.1-.36 1.05-.37 1-.42.93-.43.9-.47.85-.5.83-.52.8-.55.76-.58.75-.62.73-.66.7-.7.7-.73.68-.8.67-.84.66-.9.66-.98.65-1.07.64-1.16.63-1.28.63-1.4.6-1.56.62-1.75.6-1.97.58-2.28.57-2.65.52-3.14.48-3.83.4-4.83.26-6.5-.02-10.07-1.85-56.05.33-8.1.52-6.3.65-5.12.73-4.34.8-3.75.84-3.3.88-2.92.92-2.63.94-2.38.97-2.18 1-2 1-1.85.97-1.58 1.08-1.65 1.17-1.62 1.26-1.6 1.35-1.57 1.45-1.55 1.56-1.54 1.7-1.55 1.82-1.52 2-1.53 2.17-1.52 2.38-1.53 2.63-1.53 2.93-1.53 3.24-1.55 3.64-1.54 4.13-1.54 4.7-1.54 5.4-1.52 6.32-1.5 7.47-1.45 9.02-1.35 11.17-1.2 14.45-.94 20.25-.47 44.52 1.02 23.5.7" stroke="#5e5e5e" stroke-width="2" fill="none"/><path d="M2081.05 1399.28l-1.05.02v-2l1-.02z" fill="#5e5e5e"/><path d="M2316.77 1207.75l-14.4 4.22.27-9.27z" stroke="#5e5e5e" stroke-width="2" fill="#5e5e5e"/><path d="M2081 1398.32l.6.04.7.08.7.1.64.12.62.15.6.17.56.2.55.2.53.22.52.23.5.27.5.28.48.3.48.34.47.36.47.4.46.4.46.46.46.5.46.53.47.58.46.65.46.7.47.8.48.86.5.98.48 1.1.5 1.27.5 1.46.5 1.68.5 1.98.5 2.36.47 2.9.44 3.6.37 4.7.24 6.52-.04 10.37-1.7 47.15.2 5.27.3 3.66.34 2.75.35 2.14.36 1.72.37 1.4.35 1.2.35 1 .33.86.33.75.33.65.3.58.32.52.3.46.3.42.3.37.3.34v.03l.7.68.75.66.86.6 1 .58 1.18.55 1.45.5 1.85.5 2.5.4 3.7.26 6.8-.13 34.96-2.86 12.37.25 44.02 2.8 6.5-.34 4.82-.6 2-.37 13.83-1.95 15.78.22 8.02.1 47.4 3.4.33-.02 34.33-.28 41.65.04 9.45-.6 5.82-.72 1.08-.17 20.02-4 5.07-1.65 2.65-1.2 1.7-1 1.22-.9.92-.87.76-.87.63-.9.56-1 .48-1.13.42-1.4.35-1.94.24-3.22-.3-8.4" stroke="#5e5e5e" stroke-width="2" fill="none"/><path d="M2081.05 1397.32l-.04 2-1-.02v-2z" fill="#5e5e5e"/><path d="M2440.1 1477.16l5.15 14.1-9.27.32z" stroke="#5e5e5e" stroke-width="2" fill="#5e5e5e"/><path d="M2160.04 861.97l-.33 3.4-1 7.1-1.3 6.97-1.56 6.88-1.88 6.85-2.2 6.92-2.6 7.07-3.04 7.37-3.64 7.82-4.42 8.58-5.63 9.86-7.85 12.5-29.68 42.06-23.1 31.8-10.68 13.53-7.96 9.22-6.72 7.17-5.97 5.84-5.46 4.92-5.1 4.22-4.82 3.67-4.62 3.2-4.46 2.85-4.34 2.5-4.25 2.23-4.18 1.97-4.16 1.75-4.13 1.54-4.14 1.33-4.18 1.16-4.2.98-4.27.8-4.36.66-4.47.47-4.6.3-3.7.07-.05-2 3.68-.07 4.5-.3 4.38-.45 4.27-.63 4.2-.8 4.13-.96 4.08-1.14 4.07-1.32 4.06-1.5 4.07-1.73 4.12-1.93 4.17-2.2 4.26-2.45 4.4-2.8 4.54-3.17 4.77-3.6 5.03-4.18 5.4-4.87 5.9-5.8 6.67-7.1 7.9-9.17 10.63-13.44 23.07-31.77 29.64-42.02 7.8-12.4 5.6-9.8 4.4-8.5 3.6-7.75 3-7.28 2.56-7 2.18-6.84 1.86-6.77 1.55-6.8 1.27-6.87 1-7.04.33-3.34z" fill="#5e5e5e"/><path d="M1961.05 1097.57l-1.05.02v-2l1-.03zM2163.73 861.12l-9.26-.47 5.36-14z" fill="#5e5e5e"/><path d="M2165.05 862.2l-12-.63 6.95-18.16zm-9.15-2.48l6.5.33-2.73-10.18z" fill="#5e5e5e"/><path d="M1503 661.82l-34.1.66-19.55 1.37-13.5 1.6-9.7 1.62-7.2 1.56-5.5 1.47-4.3 1.36-3.42 1.27-2.77 1.2-2.27 1.1-1.74.93-3.74 1.84-2.6 1.26-.93 1.3.3.83.9 1.14.37 1.3.46 2.77 3.44 19.66" stroke="#5e5e5e" stroke-width="2" fill="none"/><path d="M1504 661.8l.03 1-1.04.02-.05-2 1.12-.02z" fill="#5e5e5e"/><path d="M1399.5 721.12l-6.76-13.4 9.16-1.4z" stroke="#5e5e5e" stroke-width="2" fill="#5e5e5e"/><path d="M1799 1096.57l-14.23-.3-12.6-.77-10.84-1.13-9.63-1.42-8.92-1.7-8.66-2.04-9.1-2.53-11.58-3.78-36.96-12.98-9.1-2.54-8.66-2.03-8.92-1.7-9.63-1.42-10.83-1.14-9.35-.6" stroke="#5e5e5e" stroke-width="2" fill="none"/><path d="M1800 1095.6v2l-1.05-.03.04-2z" fill="#5e5e5e"/><path d="M1604.73 1060.1l14.4-4.25-.26 9.27z" stroke="#5e5e5e" stroke-width="2" fill="#5e5e5e"/><path d="M1799 1096.65l-2.07.1-2.1.38-1.57.46-1.2.52-1 .57-.83.6-.72.7-.62.75-.57.9-.5 1.04-.48 1.3-.4 1.77-.3 2.74v18.87l-.48 2.14-.6 1.65-.65 1.35-.76 1.15-.85 1.02-1 .94-1.16.87-1.4.82-1.78.75-2.33.7-3.25.56-.6.08-61.8 4.86-23.52.4-1.8-.04-25.8-1.7-26.94-2.45-4.95.07-3.33.32-1.7.28-24.7 4-40.4 5.34-4.64 1-3.2.87-2.44.8-1.98.78-1.67.76-1.43.74-1.27.74-1.14.74-1.04.76-.96.8-.9.8-.84.84-.8.9-.77.95-.73 1-.72 1.12-.7 1.2-.67 1.36-.68 1.52-.66 1.74-.66 2.02-.64 2.4-.62 2.97-.44 2.8" stroke="#5e5e5e" stroke-width="2" fill="none"/><path d="M1800 1097.6l-.97.05-.1-2 1.07-.06z" fill="#5e5e5e"/><path d="M1526.33 1195.27l-3.78-14.52 9.26.56z" stroke="#5e5e5e" stroke-width="2" fill="#5e5e5e"/><path d="M2347.17 912.56l.4 10.08.45 5.67.48 3.84.46 2.8.46 2.13.35 1.62.94 5.47.58 5.8.13 6.12-.3 6.35-.82 6.5-1.3 6.45-1.72 6.2-2.04 5.7-2.2 4.98-2.24 4.16-2.12 3.34-1.94 2.62-1.74 2.02-1.54 1.54-1.04.92-1.7 1.28-1.65 1.02-1.66.8-1.76.67-1.92.53-2.27.4-3 .2-23.78-1.8-13.7-.25.05-2 13.75.26 23.67 1.8 2.77-.22 2.1-.36 1.73-.47 1.56-.6 1.48-.72 1.5-.92 1.55-1.17.94-.83 1.45-1.44 1.64-1.9 1.85-2.5 2.05-3.23 2.16-4.03 2.16-4.85 2-5.55 1.68-6.06 1.26-6.32.8-6.35.3-6.2-.12-5.97-.55-5.66-.92-5.37-.34-1.57-.46-2.2-.48-2.87-.5-3.9-.46-5.77-.4-10.16-.22-19.75h2zM2283.6 780.7l7.34.4 5.88.63 4.88.78 4.15.9 3.6.96 3.16 1.03 2.8 1.06 2.52 1.12 2.28 1.16 2.06 1.2 1.9 1.2 1.74 1.27 1.62 1.32 1.5 1.34 1.4 1.4 1.3 1.43 1.23 1.5 1.15 1.57 1.08 1.64 1 1.75.96 1.83.3.62 1.03 2.34 1.05 2.65 1.05 3.03 1.05 3.5 1.05 4.1 1.03 4.9 1 5.97.94 7.5.82 10.05.24 20.67h-2l-.24-20.58-.8-9.92-.94-7.43-.98-5.9-1.02-4.8-1.02-4.03-1.03-3.43-1.03-2.95-1-2.6-1.02-2.26-.27-.57-.9-1.76-.97-1.63-1.02-1.56-1.1-1.48-1.15-1.42-1.23-1.37-1.33-1.32-1.42-1.26-1.53-1.24-1.67-1.2-1.8-1.17-2-1.13-2.17-1.1-2.4-1.1-2.72-1.03-3.06-1-3.5-.93-4.05-.87-4.78-.76-5.77-.6-7.23-.4h-9.85l-15.17.76-.1-2 15.22-.77z" fill="#5e5e5e"/><path d="M2281.04 1007.73l-.03 2-1-.02v-2zM2257.72 787.14l-14.5-3.9 14.02-5.35z" fill="#5e5e5e"/><path d="M2258.78 788.47L2240 783.4l18.17-6.94zm-12.32-5.4l10.2 2.75-.35-6.5z" fill="#5e5e5e"/><use xlink:href="#ab" transform="matrix(1,0,0,1,2241.3522035176593,871.517583027056) translate(0 14.222222222222223)"/><use xlink:href="#ac" transform="matrix(1,0,0,1,2241.3522035176593,871.517583027056) translate(70.02469135802471 14.222222222222223)"/><use xlink:href="#ad" transform="matrix(1,0,0,1,2241.3522035176593,871.517583027056) translate(142.9135802469136 14.222222222222223)"/><use xlink:href="#ae" transform="matrix(1,0,0,1,2241.3522035176593,871.517583027056) translate(171.4567901234568 14.222222222222223)"/><path d="M1602.5 1260h459" stroke="#5e5e5e" stroke-width="2" fill="none"/><path d="M1602.53 1261h-1.03v-2h1.03z" fill="#5e5e5e"/><path d="M2076.76 1260l-14.26 4.64v-9.28z" stroke="#5e5e5e" stroke-width="2" fill="#5e5e5e"/><path d="M2281 1038.42h219" stroke="#5e5e5e" stroke-width="2" fill="none"/><path d="M2281.03 1039.42H2280v-2h1.03z" fill="#5e5e5e"/><path d="M2515.26 1038.42l-14.26 4.64v-9.27z" stroke="#5e5e5e" stroke-width="2" fill="#5e5e5e"/><path d="M1881.07 1159.84l.2 3.14.32 3.05.42 2.98.56 2.9.67 2.87.78 2.8.9 2.8 1.03 2.75 1.16 2.74 1.3 2.74 1.42 2.74 1.6 2.76 1.75 2.77 1.95 2.8 2.16 2.86 2.4 2.9 2.68 2.96 2.97 3.02 3.32 3.12 3.72 3.2 4.2 3.33 4.73 3.45 5.4 3.58 6.17 3.73 7.1 3.9 8.27 4.1 9.66 4.3 11.4 4.5 13.63 4.74 16.45 4.95 20.1 5.15 24.94 5.28 31.34 5.27 40.03 5.02 51.76 4.3 67.2 2.75 85.14-.08 96.35-4.04 34.9-2.5 47.52-4.6 22.02-3.12 13.64-2.52 9.56-2.2 7.17-1.95 5.64-1.8 4.6-1.7 3.82-1.58 3.26-1.5 2.8-1.46 2.48-1.42 2.2-1.37 1.97-1.36 1.78-1.33 1.64-1.34 1.5-1.34 1.4-1.36 1.3-1.36 1.2-1.4 1.15-1.43 1.07-1.48 1.03-1.53 1-1.6.93-1.7.9-1.82.88-1.94.85-2.1.04-.12h2.1l-.28.83-.87 2.17-.9 2-.95 1.9-1 1.76-1 1.7-1.1 1.6-1.12 1.54-1.2 1.5-1.27 1.45-1.34 1.43-1.45 1.4-1.56 1.4-1.7 1.4-1.84 1.38-2.04 1.4-2.27 1.43-2.55 1.45-2.9 1.5-3.32 1.55-3.9 1.62-4.67 1.7-5.72 1.84-7.25 2-9.65 2.2-13.74 2.54-22.1 3.12-47.6 4.63-34.94 2.47-96.42 4.05-85.23.07-67.26-2.77-51.84-4.3-40.1-5.03-31.44-5.3-25-5.28-20.2-5.17-16.5-4.98-13.7-4.76-11.5-4.53-9.74-4.33-8.34-4.13-7.18-3.94-6.25-3.77-5.46-3.64-4.82-3.5-4.26-3.37-3.8-3.27-3.37-3.18-3.03-3.1-2.72-3-2.46-2.98-2.2-2.9-2-2.9-1.82-2.84-1.63-2.83-1.5-2.8-1.3-2.83-1.2-2.82-1.05-2.83-.93-2.86-.8-2.9-.7-2.93-.57-3-.45-3.05-.33-3.13-.2-3.22-.05-2.3 2-.05zm720.78 14.82v20.6l-.43 9.57-.43 4.9h-2l.42-5.03.43-9.48v-20.54l-.64-56.25 2-.02z" fill="#5e5e5e"/><path d="M1881.02 1157.6l-2 .04-.02-1.05h2zM2604.83 1117.37l-9.27.1 4.48-14.3z" fill="#5e5e5e"/><path d="M2606.22 1118.35l-12.02.14 5.8-18.58zm-9.3-1.9l6.53-.06-3.38-10z" fill="#5e5e5e"/><g><use xlink:href="#aa" transform="matrix(1,0,0,1,2580.9270333570284,1209.7273322667716) translate(0 14.222222222222223)"/></g><path d="M2500.2 902.2l-4.36.63-4.96.95-4.78 1.12-4.62 1.3-4.5 1.45-4.4 1.64-4.36 1.82-4.33 2.04-4.35 2.27-4.4 2.53-4.48 2.85-4.64 3.24-4.9 3.72-5.25 4.35-5.86 5.3-6.94 6.8-36.47 41-9.74 10.4-7 6.88-5.93 5.34-5.32 4.4-4.95 3.78-4.7 3.27-4.57 2.9-4.46 2.58-4.42 2.3-4.4 2.08-4.44 1.86-4.5 1.66-4.57 1.5-4.7 1.3-4.86 1.14-5.05.96-5.28.78-5.56.58-5.88.37-5.26.1-.04-2 5.22-.1 5.8-.37 5.47-.57 5.2-.77 4.95-.96 4.78-1.12 4.62-1.3 4.5-1.45 4.4-1.64 4.36-1.83 4.33-2.04 4.35-2.27 4.4-2.54 4.48-2.85 4.64-3.22 4.9-3.7 5.25-4.37 5.86-5.27 6.95-6.82 9.7-10.36 36.5-41 7.02-6.9 5.92-5.34 5.32-4.4 4.95-3.77 4.7-3.28 4.57-2.9 4.46-2.57 4.42-2.3 4.4-2.1 4.44-1.85 4.5-1.67 4.57-1.5 4.7-1.3 4.86-1.14 5.05-.96 4.4-.65z" fill="#5e5e5e"/><path d="M2281.05 1039.4l-1.05.02v-2l1-.02zM2515.27 900.2l-13.93 5.56-.6-9.25z" fill="#5e5e5e"/><path d="M2518.5 900l-18.07 7.2-.78-12zm-16.26 4.32l9.8-3.9-10.22-2.6zM2620.13 1218.1l-.2 2-3.9-.4v-2zm-325.5-180.38l13.27.83 12.2 1.28 11.28 1.67 10.55 2 9.93 2.34 9.44 2.63 9.02 2.93 8.7 3.24 8.47 3.55 8.27 3.9 8.2 4.28 8.18 4.72 8.25 5.24 8.44 5.87 8.76 6.66 9.3 7.7 10.2 9.2 10.52 10.27 51.82 54 8.36 7.47 7.27 5.98 6.66 5 6.27 4.34 6.03 3.8 5.9 3.36 5.8 3 5.8 2.7 5.82 2.43 4.4 1.63h-.82v1.82l-4.3-1.58-5.92-2.45-5.86-2.74-5.88-3.05-5.96-3.4-6.1-3.84-6.34-4.4-6.72-5.05-7.35-6.03-8.45-7.55-51.85-54.04-10.47-10.22-10.13-9.12-9.24-7.65-8.7-6.6-8.37-5.82-8.2-5.2-8.1-4.67-8.12-4.25-8.2-3.86-8.4-3.52-8.6-3.2-8.96-2.92-9.35-2.6-9.86-2.32-10.45-2-11.2-1.64-12.12-1.27-13.2-.83-13.55-.28.04-2z" fill="#5e5e5e"/><path d="M2281.05 1037.44l-.04 2-1-.02v-2zM2635.27 1219.84l-14.48 3.94.44-9.26z" fill="#5e5e5e"/><path d="M2638.5 1220l-18.77 5.1.58-12zm-16.64 2.45l10.17-2.77-9.85-3.74z" fill="#5e5e5e"/><path d="M1842.5 1379.98l2.5-.05 3.42-.22 3.32-.34 3.25-.48 3.18-.6 3.15-.74 3.12-.88 3.1-1 3.1-1.16 3.1-1.3 3.13-1.47 3.16-1.66 3.2-1.85 3.28-2.07 3.35-2.33 3.45-2.62 3.57-2.96 3.7-3.35 3.9-3.82 4.1-4.38 4.38-5.08 4.7-5.94 5.13-7.06 5.7-8.55 6.42-10.65 7.6-13.83 9.63-19.5 15.63-35.4 41.57-98.38 9.64-19.48 7.58-13.84 6.43-10.64 5.7-8.56 5.1-7.06 4.72-5.94 4.37-5.07 4.1-4.38 3.9-3.82 3.7-3.35 3.58-2.95 3.45-2.62 3.35-2.32 3.27-2.08 3.2-1.85 3.17-1.65 3.12-1.48 3.1-1.3 3.1-1.15 3.1-1 3.13-.88 1.5-.36" stroke="#5e5e5e" stroke-width="2" fill="none"/><path d="M1842.55 1380.98l-1.05.02v-2l1-.02z" fill="#5e5e5e"/><path d="M2116.8 1038.8l-13.66 6.23-1.06-9.2z" stroke="#5e5e5e" stroke-width="2" fill="#5e5e5e"/><path d="M1879.98 1157.6l-.05 2.33-.2 3.18-.32 3.04-.42 2.92-.53 2.8-.65 2.75-.74 2.67-.85 2.62-.95 2.57-1.07 2.56-1.2 2.54-1.34 2.56-1.48 2.57-1.66 2.6-1.86 2.68-2.1 2.76-2.37 2.87-2.73 3.04-3.2 3.25-3.8 3.56-4.72 4.08-6.3 5-10.5 7.57-32.33 22.47-6.32 5-4.73 4.06-3.8 3.57-3.2 3.25-2.72 3.03-2.38 2.87-2.1 2.76-1.85 2.68-1.66 2.6-1.48 2.6-1.34 2.54-1.2 2.55-1.07 2.55-.96 2.58-.86 2.62-.66 2.37" stroke="#5e5e5e" stroke-width="2" fill="none"/><path d="M1880.98 1157.64l-2-.04.02-1h2z" fill="#5e5e5e"/><path d="M1760.4 1315.3l-2.84-14.74 9.2 1.14z" stroke="#5e5e5e" stroke-width="2" fill="#5e5e5e"/><path d="M2281 1038.44l10.1.2 11.08.7 11.15 1.18 11.34 1.68 11.68 2.23 12.22 2.87 13.05 3.65 14.4 4.68 16.77 6.26 22.37 9.43 87.04 39.77 13.63 5.08 1.6.55 11.93 3.8 12.16 3.32 12.54 2.87 13.1 2.42 13.87 1.97 14.9 1.5 16.35.92 18.34.27 21.3-.6 25.9-1.78 34.2-3.83 31.08-4.8" stroke="#5e5e5e" stroke-width="2" fill="none"/><path d="M2281.05 1037.44l-.04 2-1-.02v-2z" fill="#5e5e5e"/><path d="M2758.2 1120.5l-13.4 6.74-1.4-9.16z" stroke="#5e5e5e" stroke-width="2" fill="#5e5e5e"/><path d="M2199.98 1099.43l-.24 11.1-.86 13.52-1.62 15.34-2.62 17.66-3.98 20.8-5.95 25.27-9.05 32.34-15.23 46.6-73.53 201.97-6.16 21.9-3.76 15.97-2.38 12.43-1.5 10.06-.88 8.38-.45 7.13-.14 6.2.12 5.4.3 4.8.45 4.3.57 3.9.67 3.53.76 3.25.84 3 .9 2.78.97 2.6 1.03 2.42 1.08 2.3 1.14 2.16 1.2 2.06 1.23 1.96 1.3 1.87 1.37 1.8 1.43 1.73 1.5 1.67 1.58 1.6 1.66 1.57 1.77 1.52 1.86 1.48 1.98 1.44 2.12 1.4 2.26 1.36 2.43 1.34 2.62 1.3 2.84 1.26 3.08 1.22 3.38 1.17 3.73 1.12 4.12 1.05 4.6.98 5.2.88 5.88.74.48.04" stroke="#5e5e5e" stroke-width="2" fill="none"/><path d="M2200.98 1099.48l-2-.05.02-1h2z" fill="#5e5e5e"/><path d="M2155.27 1639.84l-14.48 3.95.44-9.27z" stroke="#5e5e5e" stroke-width="2" fill="#5e5e5e"/><path d="M1880.02 1157.6l.14 6.7.42 6.68.6 5.9.8 5.28.9 4.75 1 4.33 1.1 3.96 1.2 3.64 1.26 3.4 1.34 3.2 1.42 3 1.5 2.85 1.55 2.7 1.66 2.6 1.76 2.53 1.85 2.44 1.97 2.37 2.1 2.34 2.26 2.3 2.44 2.28 2.65 2.3 2.9 2.3 3.23 2.34 3.64 2.4 4.16 2.53 4.9 2.7 5.96 2.95 7.76 3.45 11.7 4.6 68.87 24.84 12.87 5.72 11 5.45 9.9 5.43 5.9 3.52 1.88 1.2 1.83 1.3 1.8 1.38 1.78 1.5 1.76 1.6 1.75 1.7 1.75 1.9 1.74 2.04 1.75 2.24 1.78 2.48 1.8 2.77 1.87 3.12 1.92 3.55 2 4.12 2.15 4.88 2.33 6 2.67 7.83 3.4 11.63 16.4 63.15 3.14 9.26 2.86 7.35 2.7 6.13 2.58 5.3 2.53 4.67 2.5 4.16 2.45 3.77.33.48 3.47 4.78 4.04 5.1 4.8 5.56 5.9 6.28 7.82 7.65 13.03 11.68 33.6 29.1 6.47 6.32 4.67 4.97 3.65 4.22 2.96 3.75 2.48 3.43 2.1 3.17 1.82 2.98 1.56 2.85 1.36 2.73 1.18 2.66 1.02 2.6.9 2.54.3 1" stroke="#5e5e5e" stroke-width="2" fill="none"/><path d="M1881.02 1157.6l-2 .04-.02-1.05h2z" fill="#5e5e5e"/><path d="M2239.52 1595.3l-6.7-13.42 9.18-1.37z" stroke="#5e5e5e" stroke-width="2" fill="#5e5e5e"/><path d="M2427.62 904.83l-3.68 12.17-3.88 11.16-4.04 10.2-4.15 9.35-4.24 8.54-4.3 7.8-4.3 7.16-4.37 6.56-4.37 6-4.4 5.55-4.4 5.1-4.4 4.7-4.42 4.33-4.45 4-4.46 3.7-4.5 3.42-4.54 3.16-4.6 2.92-4.64 2.68-4.72 2.46-4.8 2.26-4.88 2.06-5 1.85-5.1 1.67-5.27 1.46-5.42 1.27-5.6 1.07-5.8.86-6.02.63-6.3.4-5.56.1-.04-2 5.53-.1 6.2-.4 5.96-.63 5.72-.84 5.5-1.05 5.35-1.25 5.18-1.45 5.05-1.64 4.9-1.82 4.82-2.03 4.72-2.23 4.63-2.42 4.57-2.64 4.52-2.86 4.47-3.1 4.42-3.37 4.4-3.65 4.4-3.94 4.35-4.28 4.35-4.63 4.35-5.04 4.33-5.46 4.32-5.96 4.3-6.47 4.3-7.08 4.24-7.73 4.2-8.46 4.12-9.26 4-10.13 3.86-11.08 3.65-12.1 2.92-11.45h2.07zm12.9-84.8l-.36 8.24-1.44 17.2-2.06 16.38-1.64 9.67H2433l1.68-9.96 2.05-16.3 1.44-17.1.34-8.2z" fill="#5e5e5e"/><path d="M2281.05 1039.4l-1.05.02v-2l1-.02zM2444.17 819.12l-9.27-.25 5-14.14z" fill="#5e5e5e"/><path d="M2445.52 820.16l-12.02-.32 6.5-18.34zm-9.22-2.25l6.52.18-3-10.1zM1401.6 868.84l.9 10.95 1.1 8.8 1.2 7.28 1.28 6.1 1.33 5.24 1.37 4.52 1.37 3.97 1.4 3.52 1.38 3.15 1.4 2.84 1.4 2.6 1.44 2.35 1.44 2.18 1.46 2.02 1.48 1.88 1.52 1.76 1.56 1.66 1.6 1.57 1.65 1.5 1.72 1.42 1.8 1.37 1.87 1.3 2 1.28 2.12 1.23 2.26 1.2 2.47 1.16 2.7 1.13 3 1.12 3.36 1.1 3.87 1.08 4.58 1.08 5.67 1.1 7.55 1.12 53.6 4.26 18.75 1.97 13.98 2.08 12.07 2.32 11 2.6 10.32 2.9 9.86 3.22 9.56 3.57 9.37 3.96 9.25 4.38 9.22 4.84 9.25 5.36 9.32 5.94 9.68 6.74 11.76 8.94 14.22 11.8 18.03 16.26 25 24.56 124.6 137.73 54.2 58.07 32.33 31.74 24.78 22.36 20.5 16.97 17.6 13.38 15.55 10.8 13.93 8.87 12.7 7.34 11.68 6.1 10.86 5.1 10.17 4.3 9.58 3.56 9.1 2.96 8.7 2.43 8.35 1.96 8.06 1.54 7.82 1.16 7.6.8 7.46.47 6.34.13-.05 2-6.38-.13-7.54-.48-7.7-.82-7.9-1.16-8.12-1.56-8.43-1.98-8.76-2.45-9.2-2.98-9.65-3.6-10.25-4.3-10.93-5.16-11.76-6.16-12.76-7.38-14.02-8.9-15.6-10.86-17.7-13.44-20.55-17.03-24.84-22.4-32.4-31.8-54.25-58.13-124.56-137.7-24.95-24.5-17.96-16.2-14.16-11.73-11.7-8.9-9.6-6.7-9.26-5.88-9.18-5.33-9.14-4.8-9.18-4.34-9.3-3.93-9.48-3.54-9.8-3.2-10.23-2.88-10.92-2.57-12-2.3-13.9-2.07-18.66-1.96-53.66-4.26-7.65-1.13-5.76-1.1-4.67-1.1-3.96-1.1-3.44-1.14-3.07-1.14-2.8-1.18-2.53-1.2-2.35-1.24-2.2-1.27-2.06-1.3-1.95-1.37-1.85-1.4-1.8-1.5-1.7-1.55-1.66-1.63-1.63-1.72-1.57-1.83-1.54-1.95-1.5-2.08-1.5-2.25-1.46-2.44-1.46-2.65-1.43-2.9-1.42-3.23-1.42-3.6-1.4-4.04-1.37-4.6-1.36-5.3-1.3-6.2-1.23-7.36-1.1-8.9-.9-11.04-.3-7.93 2-.08z" fill="#5e5e5e"/><path d="M2160 1412.92v2l-1.05-.02.04-2zM1404.9 859.92l-9.26.15 4.4-14.34z" fill="#5e5e5e"/><path d="M1406.3 860.9l-12.02.2 5.72-18.6zm-9.3-1.86l6.52-.1-3.42-9.98z" fill="#5e5e5e"/><defs><path fill="#fff" d="M275 0h-61l-44-196L126 0H64L0-248h53L97-49l45-199h58l43 199 44-199h52" id="af"/><path fill="#fff" d="M185-48c-13 30-37 53-82 52C43 2 14-33 14-96s30-98 90-98c62 0 83 45 84 108H66c0 31 8 55 39 56 18 0 30-7 34-22zm-45-69c5-46-57-63-70-21-2 6-4 13-4 21h74" id="ag"/><path fill="#fff" d="M25 0v-261h50V0H25" id="ah"/><path fill="#fff" d="M190-63c-7 42-38 67-86 67-59 0-84-38-90-98-12-110 154-137 174-36l-49 2c-2-19-15-32-35-32-30 0-35 28-38 64-6 74 65 87 74 30" id="ai"/><path fill="#fff" d="M110-194c64 0 96 36 96 99 0 64-35 99-97 99-61 0-95-36-95-99 0-62 34-99 96-99zm-1 164c35 0 45-28 45-65 0-40-10-65-43-65-34 0-45 26-45 65 0 36 10 65 43 65" id="aj"/><path fill="#fff" d="M220-157c-53 9-28 100-34 157h-49v-107c1-27-5-49-29-50C55-147 81-57 75 0H25l-1-190h47c2 12-1 28 3 38 10-53 101-56 108 0 13-22 24-43 59-42 82 1 51 116 57 194h-49v-107c-1-25-5-48-29-50" id="ak"/><g id="a"><use transform="matrix(0.05,0,0,0.05,0,0)" xlink:href="#af"/><use transform="matrix(0.05,0,0,0.05,16.599999999999998,0)" xlink:href="#ag"/><use transform="matrix(0.05,0,0,0.05,26.599999999999994,0)" xlink:href="#ah"/><use transform="matrix(0.05,0,0,0.05,31.599999999999994,0)" xlink:href="#ai"/><use transform="matrix(0.05,0,0,0.05,41.599999999999994,0)" xlink:href="#aj"/><use transform="matrix(0.05,0,0,0.05,52.54999999999999,0)" xlink:href="#ak"/><use transform="matrix(0.05,0,0,0.05,68.55,0)" xlink:href="#ag"/></g><path fill="#fff" d="M24-248c93 1 206-16 204 79-1 75-69 88-152 82V0H24v-248zm52 121c47 0 100 7 100-41 0-47-54-39-100-39v80" id="al"/><path fill="#fff" d="M133-34C117-15 103 5 69 4 32 3 11-16 11-54c-1-60 55-63 116-61 1-26-3-47-28-47-18 1-26 9-28 27l-52-2c7-38 36-58 82-57s74 22 75 68l1 82c-1 14 12 18 25 15v27c-30 8-71 5-69-32zm-48 3c29 0 43-24 42-57-32 0-66-3-65 30 0 17 8 27 23 27" id="am"/><path fill="#fff" d="M195-6C206 82 75 100 31 46c-4-6-6-13-8-21l49-6c3 16 16 24 34 25 40 0 42-37 40-79-11 22-30 35-61 35-53 0-70-43-70-97 0-56 18-96 73-97 30 0 46 14 59 34l2-30h47zm-90-29c32 0 41-27 41-63 0-35-9-62-40-62-32 0-39 29-40 63 0 36 9 62 39 62" id="an"/><g id="b"><use transform="matrix(0.05,0,0,0.05,0,0)" xlink:href="#al"/><use transform="matrix(0.05,0,0,0.05,12,0)" xlink:href="#am"/><use transform="matrix(0.05,0,0,0.05,22,0)" xlink:href="#an"/><use transform="matrix(0.05,0,0,0.05,32.95,0)" xlink:href="#ag"/></g><path fill="#a9afb8" d="M67-125c0 53 21 87 73 88 37 1 54-22 65-47l45 17C233-25 199 4 140 4 58 4 20-42 15-125 8-235 124-281 211-232c18 10 29 29 36 50l-46 12c-8-25-30-41-62-41-52 0-71 34-72 86" id="ao"/><path fill="#a9afb8" d="M110-194c64 0 96 36 96 99 0 64-35 99-97 99-61 0-95-36-95-99 0-62 34-99 96-99zm-1 164c35 0 45-28 45-65 0-40-10-65-43-65-34 0-45 26-45 65 0 36 10 65 43 65" id="ap"/><path fill="#a9afb8" d="M135-194c53 0 70 44 70 98 0 56-19 98-73 100-31 1-45-17-59-34 3 33 2 69 2 105H25l-1-265h48c2 10 0 23 3 31 11-24 29-35 60-35zM114-30c33 0 39-31 40-66 0-38-9-64-40-64-56 0-55 130 0 130" id="aq"/><path fill="#a9afb8" d="M123 10C108 53 80 86 19 72V37c35 8 53-11 59-39L3-190h52l48 148c12-52 28-100 44-148h51" id="ar"/><g id="c"><use transform="matrix(0.0728395061728395,0,0,0.0728395061728395,0,0)" xlink:href="#ao"/><use transform="matrix(0.0728395061728395,0,0,0.0728395061728395,18.86543209876543,0)" xlink:href="#ap"/><use transform="matrix(0.0728395061728395,0,0,0.0728395061728395,34.81728395061728,0)" xlink:href="#aq"/><use transform="matrix(0.0728395061728395,0,0,0.0728395061728395,50.76913580246913,0)" xlink:href="#ar"/></g><path fill="#a9afb8" d="M121-226c-27-7-43 5-38 36h38v33H83V0H34v-157H6v-33h28c-9-59 32-81 87-68v32" id="as"/><g id="d"><use transform="matrix(0.0728395061728395,0,0,0.0728395061728395,0,0)" xlink:href="#ap"/><use transform="matrix(0.0728395061728395,0,0,0.0728395061728395,15.95185185185185,0)" xlink:href="#as"/></g><g id="e"><use transform="matrix(0.0728395061728395,0,0,0.0728395061728395,0,0)" xlink:href="#ao"/><use transform="matrix(0.0728395061728395,0,0,0.0728395061728395,18.86543209876543,0)" xlink:href="#ap"/><use transform="matrix(0.0728395061728395,0,0,0.0728395061728395,34.81728395061728,0)" xlink:href="#aq"/><use transform="matrix(0.0728395061728395,0,0,0.0728395061728395,50.76913580246913,0)" xlink:href="#ar"/></g><g id="f"><use transform="matrix(0.0728395061728395,0,0,0.0728395061728395,0,0)" xlink:href="#ap"/><use transform="matrix(0.0728395061728395,0,0,0.0728395061728395,15.95185185185185,0)" xlink:href="#as"/></g><path fill="#a9afb8" d="M76-208v77h127v40H76V0H24v-248h183v40H76" id="at"/><path fill="#a9afb8" d="M25 0v-261h50V0H25" id="au"/><path fill="#a9afb8" d="M231 0h-52l-39-155L100 0H48L-1-190h46L77-45c9-52 24-97 36-145h53l37 145 32-145h46" id="av"/><path fill="#a9afb8" d="M190-63c-7 42-38 67-86 67-59 0-84-38-90-98-12-110 154-137 174-36l-49 2c-2-19-15-32-35-32-30 0-35 28-38 64-6 74 65 87 74 30" id="aw"/><path fill="#a9afb8" d="M114-157C55-157 80-60 75 0H25v-261h50l-1 109c12-26 28-41 61-42 86-1 58 113 63 194h-50c-7-57 23-157-34-157" id="ax"/><path fill="#a9afb8" d="M133-34C117-15 103 5 69 4 32 3 11-16 11-54c-1-60 55-63 116-61 1-26-3-47-28-47-18 1-26 9-28 27l-52-2c7-38 36-58 82-57s74 22 75 68l1 82c-1 14 12 18 25 15v27c-30 8-71 5-69-32zm-48 3c29 0 43-24 42-57-32 0-66-3-65 30 0 17 8 27 23 27" id="ay"/><path fill="#a9afb8" d="M135-150c-39-12-60 13-60 57V0H25l-1-190h47c2 13-1 29 3 40 6-28 27-53 61-41v41" id="az"/><path fill="#a9afb8" d="M115-3C79 11 28 4 28-45v-112H4v-33h27l15-45h31v45h36v33H77v99c-1 23 16 31 38 25v30" id="aA"/><g id="g"><use transform="matrix(0.0728395061728395,0,0,0.0728395061728395,0,0)" xlink:href="#at"/><use transform="matrix(0.0728395061728395,0,0,0.0728395061728395,15.95185185185185,0)" xlink:href="#au"/><use transform="matrix(0.0728395061728395,0,0,0.0728395061728395,23.235802469135802,0)" xlink:href="#ap"/><use transform="matrix(0.0728395061728395,0,0,0.0728395061728395,39.187654320987654,0)" xlink:href="#av"/><use transform="matrix(0.0728395061728395,0,0,0.0728395061728395,59.582716049382704,0)" xlink:href="#aw"/><use transform="matrix(0.0728395061728395,0,0,0.0728395061728395,74.15061728395061,0)" xlink:href="#ax"/><use transform="matrix(0.0728395061728395,0,0,0.0728395061728395,90.10246913580247,0)" xlink:href="#ay"/><use transform="matrix(0.0728395061728395,0,0,0.0728395061728395,104.67037037037036,0)" xlink:href="#az"/><use transform="matrix(0.0728395061728395,0,0,0.0728395061728395,114.8679012345679,0)" xlink:href="#aA"/></g><path fill="#a9afb8" d="M185-189c-5-48-123-54-124 2 14 75 158 14 163 119 3 78-121 87-175 55-17-10-28-26-33-46l33-7c5 56 141 63 141-1 0-78-155-14-162-118-5-82 145-84 179-34 5 7 8 16 11 25" id="aB"/><use transform="matrix(0.04248971193415638,0,0,0.04248971193415638,0,0)" xlink:href="#aB" id="h"/><path fill="#a9afb8" d="M240 0l2-218c-23 76-54 145-80 218h-23L58-218 59 0H30v-248h44l77 211c21-75 51-140 76-211h43V0h-30" id="aC"/><use transform="matrix(0.04248971193415638,0,0,0.04248971193415638,0,0)" xlink:href="#aC" id="i"/><path fill="#a9afb8" d="M143 4C61 4 22-44 18-125c-5-107 100-154 193-111 17 8 29 25 37 43l-32 9c-13-25-37-40-76-40-61 0-88 39-88 99 0 61 29 100 91 101 35 0 62-11 79-27v-45h-74v-28h105v86C228-13 192 4 143 4" id="aD"/><path fill="#a9afb8" d="M141-36C126-15 110 5 73 4 37 3 15-17 15-53c-1-64 63-63 125-63 3-35-9-54-41-54-24 1-41 7-42 31l-33-3c5-37 33-52 76-52 45 0 72 20 72 64v82c-1 20 7 32 28 27v20c-31 9-61-2-59-35zM48-53c0 20 12 33 32 33 41-3 63-29 60-74-43 2-92-5-92 41" id="aE"/><path fill="#a9afb8" d="M9 0v-24l116-142H16v-24h144v24L44-24h123V0H9" id="aF"/><path fill="#a9afb8" d="M24 0v-261h32V0H24" id="aG"/><path fill="#a9afb8" d="M24-231v-30h32v30H24zM24 0v-190h32V0H24" id="aH"/><g id="j"><use transform="matrix(0.04248971193415638,0,0,0.04248971193415638,0,0)" xlink:href="#aD"/><use transform="matrix(0.04248971193415638,0,0,0.04248971193415638,11.897119341563785,0)" xlink:href="#aE"/><use transform="matrix(0.04248971193415638,0,0,0.04248971193415638,20.39506172839506,0)" xlink:href="#aF"/><use transform="matrix(0.04248971193415638,0,0,0.04248971193415638,28.04320987654321,0)" xlink:href="#aF"/><use transform="matrix(0.04248971193415638,0,0,0.04248971193415638,35.691358024691354,0)" xlink:href="#aE"/><use transform="matrix(0.04248971193415638,0,0,0.04248971193415638,44.18930041152263,0)" xlink:href="#aG"/><use transform="matrix(0.04248971193415638,0,0,0.04248971193415638,47.54598765432099,0)" xlink:href="#aH"/></g><path fill="#a9afb8" d="M205 0l-28-72H64L36 0H1l101-248h38L239 0h-34zm-38-99l-47-123c-12 45-31 82-46 123h93" id="aI"/><path fill="#a9afb8" d="M114-163C36-179 61-72 57 0H25l-1-190h30c1 12-1 29 2 39 6-27 23-49 58-41v29" id="aJ"/><path fill="#a9afb8" d="M101-234c-31-9-42 10-38 44h38v23H63V0H32v-167H5v-23h27c-7-52 17-82 69-68v24" id="aK"/><path fill="#a9afb8" d="M59-47c-2 24 18 29 38 22v24C64 9 27 4 27-40v-127H5v-23h24l9-43h21v43h35v23H59v120" id="aL"/><g id="k"><use transform="matrix(0.04248971193415638,0,0,0.04248971193415638,0,0)" xlink:href="#aI"/><use transform="matrix(0.04248971193415638,0,0,0.04248971193415638,10.19753086419753,0)" xlink:href="#aJ"/><use transform="matrix(0.04248971193415638,0,0,0.04248971193415638,15.25380658436214,0)" xlink:href="#aE"/><use transform="matrix(0.04248971193415638,0,0,0.04248971193415638,23.751748971193415,0)" xlink:href="#aK"/><use transform="matrix(0.04248971193415638,0,0,0.04248971193415638,28.000720164609053,0)" xlink:href="#aE"/><use transform="matrix(0.04248971193415638,0,0,0.04248971193415638,36.498662551440326,0)" xlink:href="#aL"/></g><path fill="#a9afb8" d="M190 0L58-211 59 0H30v-248h39L202-35l-2-213h31V0h-41" id="aM"/><path fill="#a9afb8" d="M135-143c-3-34-86-38-87 0 15 53 115 12 119 90S17 21 10-45l28-5c4 36 97 45 98 0-10-56-113-15-118-90-4-57 82-63 122-42 12 7 21 19 24 35" id="aN"/><path fill="#a9afb8" d="M106-169C34-169 62-67 57 0H25v-261h32l-1 103c12-21 28-36 61-36 89 0 53 116 60 194h-32v-121c2-32-8-49-39-48" id="aO"/><path fill="#a9afb8" d="M117-194c89-4 53 116 60 194h-32v-121c0-31-8-49-39-48C34-167 62-67 57 0H25l-1-190h30c1 10-1 24 2 32 11-22 29-35 61-36" id="aP"/><g id="l"><use transform="matrix(0.04248971193415638,0,0,0.04248971193415638,0,0)" xlink:href="#aM"/><use transform="matrix(0.04248971193415638,0,0,0.04248971193415638,11.004835390946502,0)" xlink:href="#aH"/><use transform="matrix(0.04248971193415638,0,0,0.04248971193415638,14.361522633744855,0)" xlink:href="#aN"/><use transform="matrix(0.04248971193415638,0,0,0.04248971193415638,22.009670781893004,0)" xlink:href="#aO"/><use transform="matrix(0.04248971193415638,0,0,0.04248971193415638,30.50761316872428,0)" xlink:href="#aE"/><use transform="matrix(0.04248971193415638,0,0,0.04248971193415638,39.00555555555555,0)" xlink:href="#aP"/></g><path fill="#a9afb8" d="M27 0v-27h64v-190l-56 39v-29l58-41h29v221h61V0H27" id="aQ"/><path fill="#a9afb8" d="M134-131c28 9 52 24 51 62-1 50-34 73-85 73S17-19 16-69c0-36 21-54 49-61-75-25-45-126 34-121 46 3 78 18 79 63 0 33-17 51-44 57zm-34-11c31 1 46-15 46-44 0-28-17-43-47-42-29 0-46 13-45 42 1 28 16 44 46 44zm1 122c35 0 51-18 51-52 0-30-18-46-53-46-33 0-51 17-51 47 0 34 19 51 53 51" id="aR"/><path fill="#a9afb8" d="M126-127c33 6 58 20 58 59 0 88-139 92-164 29-3-8-5-16-6-25l32-3c6 27 21 44 54 44 32 0 52-15 52-46 0-38-36-46-79-43v-28c39 1 72-4 72-42 0-27-17-43-46-43-28 0-47 15-49 41l-32-3c6-42 35-63 81-64 48-1 79 21 79 65 0 36-21 52-52 59" id="aS"/><path fill="#a9afb8" d="M54-142c48-35 137-8 131 61C196 18 31 33 14-55l32-4c7 23 22 37 52 37 35-1 51-22 54-58 4-55-73-65-99-34H22l8-134h141v27H59" id="aT"/><path fill="#a9afb8" d="M110-160c48 1 74 30 74 79 0 53-28 85-80 85-65 0-83-55-86-122-5-90 50-162 133-122 14 7 22 21 27 39l-31 6c-5-40-67-38-82-6-9 19-15 44-15 74 11-20 30-34 60-33zm-7 138c34 0 49-23 49-58s-16-56-50-56c-29 0-50 16-49 49 1 36 15 65 50 65" id="aU"/><path fill="#a9afb8" d="M155-56V0h-30v-56H8v-25l114-167h33v167h35v25h-35zm-30-156c-27 46-58 90-88 131h88v-131" id="aV"/><path fill="#a9afb8" d="M101-251c82-7 93 87 43 132L82-64C71-53 59-42 53-27h129V0H18c2-99 128-94 128-182 0-28-16-43-45-43s-46 15-49 41l-32-3c6-41 34-60 81-64" id="aW"/><g id="m"><use transform="matrix(0.04248971193415638,0,0,0.04248971193415638,0,0)" xlink:href="#aQ"/><use transform="matrix(0.04248971193415638,0,0,0.04248971193415638,8.497942386831275,0)" xlink:href="#aR"/><use transform="matrix(0.04248971193415638,0,0,0.04248971193415638,16.99588477366255,0)" xlink:href="#aS"/><use transform="matrix(0.04248971193415638,0,0,0.04248971193415638,25.493827160493822,0)" xlink:href="#aQ"/><use transform="matrix(0.04248971193415638,0,0,0.04248971193415638,33.9917695473251,0)" xlink:href="#aT"/><use transform="matrix(0.04248971193415638,0,0,0.04248971193415638,42.489711934156375,0)" xlink:href="#aQ"/><use transform="matrix(0.04248971193415638,0,0,0.04248971193415638,50.98765432098765,0)" xlink:href="#aS"/><use transform="matrix(0.04248971193415638,0,0,0.04248971193415638,59.48559670781893,0)" xlink:href="#aU"/><use transform="matrix(0.04248971193415638,0,0,0.04248971193415638,67.9835390946502,0)" xlink:href="#aV"/><use transform="matrix(0.04248971193415638,0,0,0.04248971193415638,76.48148148148147,0)" xlink:href="#aW"/></g><path fill="#a9afb8" d="M32 76v-337h29V76H32" id="aX"/><use transform="matrix(0.04248971193415638,0,0,0.04248971193415638,0,0)" xlink:href="#aX" id="n"/><path fill="#a9afb8" d="M96-169c-40 0-48 33-48 73s9 75 48 75c24 0 41-14 43-38l32 2c-6 37-31 61-74 61-59 0-76-41-82-99-10-93 101-131 147-64 4 7 5 14 7 22l-32 3c-4-21-16-35-41-35" id="aY"/><g id="o"><use transform="matrix(0.04248971193415638,0,0,0.04248971193415638,0,0)" xlink:href="#aC"/><use transform="matrix(0.04248971193415638,0,0,0.04248971193415638,12.704423868312757,0)" xlink:href="#aE"/><use transform="matrix(0.04248971193415638,0,0,0.04248971193415638,21.20236625514403,0)" xlink:href="#aJ"/><use transform="matrix(0.04248971193415638,0,0,0.04248971193415638,26.25864197530864,0)" xlink:href="#aY"/><use transform="matrix(0.04248971193415638,0,0,0.04248971193415638,33.90679012345679,0)" xlink:href="#aO"/></g><path fill="#a9afb8" d="M68-38c1 34 0 65-14 84H32c9-13 17-26 17-46H33v-38h35" id="aZ"/><g id="p"><use transform="matrix(0.04248971193415638,0,0,0.04248971193415638,0,0)" xlink:href="#aQ"/><use transform="matrix(0.04248971193415638,0,0,0.04248971193415638,8.497942386831275,0)" xlink:href="#aR"/><use transform="matrix(0.04248971193415638,0,0,0.04248971193415638,16.99588477366255,0)" xlink:href="#aZ"/></g><path fill="#a9afb8" d="M101-251c68 0 85 55 85 127S166 4 100 4C33 4 14-52 14-124c0-73 17-127 87-127zm-1 229c47 0 54-49 54-102s-4-102-53-102c-51 0-55 48-55 102 0 53 5 102 54 102" id="ba"/><g id="q"><use transform="matrix(0.04248971193415638,0,0,0.04248971193415638,0,0)" xlink:href="#aW"/><use transform="matrix(0.04248971193415638,0,0,0.04248971193415638,8.497942386831275,0)" xlink:href="#ba"/><use transform="matrix(0.04248971193415638,0,0,0.04248971193415638,16.99588477366255,0)" xlink:href="#aW"/><use transform="matrix(0.04248971193415638,0,0,0.04248971193415638,25.493827160493822,0)" xlink:href="#aQ"/></g><path fill="#fff" d="M135-150c-39-12-60 13-60 57V0H25l-1-190h47c2 13-1 29 3 40 6-28 27-53 61-41v41" id="bb"/><path fill="#fff" d="M147 0L96-86 75-71V0H25v-261h50v150l67-79h53l-66 74L201 0h-54" id="bc"/><path fill="#fff" d="M121-226c-27-7-43 5-38 36h38v33H83V0H34v-157H6v-33h28c-9-59 32-81 87-68v32" id="bd"/><path fill="#fff" d="M231 0h-52l-39-155L100 0H48L-1-190h46L77-45c9-52 24-97 36-145h53l37 145 32-145h46" id="be"/><g id="r"><use transform="matrix(0.0685185185185185,0,0,0.0685185185185185,0,0)" xlink:href="#af"/><use transform="matrix(0.0685185185185185,0,0,0.0685185185185185,22.748148148148143,0)" xlink:href="#aj"/><use transform="matrix(0.0685185185185185,0,0,0.0685185185185185,37.75370370370369,0)" xlink:href="#bb"/><use transform="matrix(0.0685185185185185,0,0,0.0685185185185185,47.34629629629629,0)" xlink:href="#bc"/><use transform="matrix(0.0685185185185185,0,0,0.0685185185185185,61.04999999999999,0)" xlink:href="#bd"/><use transform="matrix(0.0685185185185185,0,0,0.0685185185185185,69.2037037037037,0)" xlink:href="#ah"/><use transform="matrix(0.0685185185185185,0,0,0.0685185185185185,76.05555555555554,0)" xlink:href="#aj"/><use transform="matrix(0.0685185185185185,0,0,0.0685185185185185,91.06111111111112,0)" xlink:href="#be"/></g><path fill="#fff" d="M24-248c120-7 223 5 221 122C244-46 201 0 124 0H24v-248zM76-40c74 7 117-18 117-86 0-67-45-88-117-82v168" id="bf"/><path fill="#fff" d="M25-224v-37h50v37H25zM25 0v-190h50V0H25" id="bg"/><g id="s"><use transform="matrix(0.0685185185185185,0,0,0.0685185185185185,0,0)" xlink:href="#bf"/><use transform="matrix(0.0685185185185185,0,0,0.0685185185185185,17.746296296296293,0)" xlink:href="#bg"/><use transform="matrix(0.0685185185185185,0,0,0.0685185185185185,24.598148148148145,0)" xlink:href="#am"/><use transform="matrix(0.0685185185185185,0,0,0.0685185185185185,38.30185185185184,0)" xlink:href="#an"/><use transform="matrix(0.0685185185185185,0,0,0.0685185185185185,53.307407407407396,0)" xlink:href="#bb"/><use transform="matrix(0.0685185185185185,0,0,0.0685185185185185,62.89999999999999,0)" xlink:href="#am"/><use transform="matrix(0.0685185185185185,0,0,0.0685185185185185,76.60370370370369,0)" xlink:href="#ak"/></g><path fill="#333" d="M160-131c35 5 61 23 61 61C221 17 115-2 30 0v-248c76 3 177-17 177 60 0 33-19 50-47 57zm-97-11c50-1 110 9 110-42 0-47-63-36-110-37v79zm0 115c55-2 124 14 124-45 0-56-70-42-124-44v89" id="bh"/><path fill="#333" d="M114-163C36-179 61-72 57 0H25l-1-190h30c1 12-1 29 2 39 6-27 23-49 58-41v29" id="bi"/><path fill="#333" d="M100-194c62-1 85 37 85 99 1 63-27 99-86 99S16-35 15-95c0-66 28-99 85-99zM99-20c44 1 53-31 53-75 0-43-8-75-51-75s-53 32-53 75 10 74 51 75" id="bj"/><path fill="#333" d="M206 0h-36l-40-164L89 0H53L-1-190h32L70-26l43-164h34l41 164 42-164h31" id="bk"/><path fill="#333" d="M135-143c-3-34-86-38-87 0 15 53 115 12 119 90S17 21 10-45l28-5c4 36 97 45 98 0-10-56-113-15-118-90-4-57 82-63 122-42 12 7 21 19 24 35" id="bl"/><path fill="#333" d="M100-194c63 0 86 42 84 106H49c0 40 14 67 53 68 26 1 43-12 49-29l28 8c-11 28-37 45-77 45C44 4 14-33 15-96c1-61 26-98 85-98zm52 81c6-60-76-77-97-28-3 7-6 17-6 28h103" id="bm"/><path fill="#333" d="M0 4l72-265h28L28 4H0" id="bn"/><path fill="#333" d="M185-189c-5-48-123-54-124 2 14 75 158 14 163 119 3 78-121 87-175 55-17-10-28-26-33-46l33-7c5 56 141 63 141-1 0-78-155-14-162-118-5-82 145-84 179-34 5 7 8 16 11 25" id="bo"/><path fill="#333" d="M141-36C126-15 110 5 73 4 37 3 15-17 15-53c-1-64 63-63 125-63 3-35-9-54-41-54-24 1-41 7-42 31l-33-3c5-37 33-52 76-52 45 0 72 20 72 64v82c-1 20 7 32 28 27v20c-31 9-61-2-59-35zM48-53c0 20 12 33 32 33 41-3 63-29 60-74-43 2-92-5-92 41" id="bp"/><path fill="#333" d="M96-169c-40 0-48 33-48 73s9 75 48 75c24 0 41-14 43-38l32 2c-6 37-31 61-74 61-59 0-76-41-82-99-10-93 101-131 147-64 4 7 5 14 7 22l-32 3c-4-21-16-35-41-35" id="bq"/><path fill="#333" d="M106-169C34-169 62-67 57 0H25v-261h32l-1 103c12-21 28-36 61-36 89 0 53 116 60 194h-32v-121c2-32-8-49-39-48" id="br"/><g id="t"><use transform="matrix(0.05,0,0,0.05,0,0)" xlink:href="#bh"/><use transform="matrix(0.05,0,0,0.05,12,0)" xlink:href="#bi"/><use transform="matrix(0.05,0,0,0.05,17.95,0)" xlink:href="#bj"/><use transform="matrix(0.05,0,0,0.05,27.950000000000003,0)" xlink:href="#bk"/><use transform="matrix(0.05,0,0,0.05,40.9,0)" xlink:href="#bl"/><use transform="matrix(0.05,0,0,0.05,49.9,0)" xlink:href="#bm"/><use transform="matrix(0.05,0,0,0.05,59.900000000000006,0)" xlink:href="#bn"/><use transform="matrix(0.05,0,0,0.05,64.9,0)" xlink:href="#bo"/><use transform="matrix(0.05,0,0,0.05,76.9,0)" xlink:href="#bm"/><use transform="matrix(0.05,0,0,0.05,86.9,0)" xlink:href="#bp"/><use transform="matrix(0.05,0,0,0.05,96.9,0)" xlink:href="#bi"/><use transform="matrix(0.05,0,0,0.05,102.85000000000001,0)" xlink:href="#bq"/><use transform="matrix(0.05,0,0,0.05,111.85000000000001,0)" xlink:href="#br"/></g><path fill="#333" d="M24-231v-30h32v30H24zM24 0v-190h32V0H24" id="bs"/><path fill="#333" d="M177-190C167-65 218 103 67 71c-23-6-38-20-44-43l32-5c15 47 100 32 89-28v-30C133-14 115 1 83 1 29 1 15-40 15-95c0-56 16-97 71-98 29-1 48 16 59 35 1-10 0-23 2-32h30zM94-22c36 0 50-32 50-73 0-42-14-75-50-75-39 0-46 34-46 75s6 73 46 73" id="bt"/><path fill="#333" d="M117-194c89-4 53 116 60 194h-32v-121c0-31-8-49-39-48C34-167 62-67 57 0H25l-1-190h30c1 10-1 24 2 32 11-22 29-35 61-36" id="bu"/><g id="u"><use transform="matrix(0.05,0,0,0.05,0,0)" xlink:href="#bo"/><use transform="matrix(0.05,0,0,0.05,12,0)" xlink:href="#bs"/><use transform="matrix(0.05,0,0,0.05,15.949999999999998,0)" xlink:href="#bt"/><use transform="matrix(0.05,0,0,0.05,25.950000000000003,0)" xlink:href="#bu"/></g><g id="v"><use transform="matrix(0.05,0,0,0.05,0,0)" xlink:href="#bs"/><use transform="matrix(0.05,0,0,0.05,3.95,0)" xlink:href="#bu"/><use transform="matrix(0.05,0,0,0.05,13.949999999999998,0)" xlink:href="#bn"/><use transform="matrix(0.05,0,0,0.05,18.95,0)" xlink:href="#bo"/><use transform="matrix(0.05,0,0,0.05,30.950000000000003,0)" xlink:href="#bs"/><use transform="matrix(0.05,0,0,0.05,34.9,0)" xlink:href="#bt"/><use transform="matrix(0.05,0,0,0.05,44.9,0)" xlink:href="#bu"/></g><path fill="#333" d="M232-93c-1 65-40 97-104 97C67 4 28-28 28-90v-158h33c8 89-33 224 67 224 102 0 64-133 71-224h33v155" id="bv"/><path fill="#333" d="M115-194c55 1 70 41 70 98S169 2 115 4C84 4 66-9 55-30l1 105H24l-1-265h31l2 30c10-21 28-34 59-34zm-8 174c40 0 45-34 45-75s-6-73-45-74c-42 0-51 32-51 76 0 43 10 73 51 73" id="bw"/><g id="w"><use transform="matrix(0.05,0,0,0.05,0,0)" xlink:href="#bv"/><use transform="matrix(0.05,0,0,0.05,12.950000000000001,0)" xlink:href="#bw"/></g><path fill="#fff" d="M240-174c0 40-23 61-54 70L253 0h-59l-57-94H76V0H24v-248c93 4 217-23 216 74zM76-134c48-2 112 12 112-38 0-48-66-32-112-35v73" id="bx"/><path fill="#fff" d="M137-138c1-29-70-34-71-4 15 46 118 7 119 86 1 83-164 76-172 9l43-7c4 19 20 25 44 25 33 8 57-30 24-41C81-84 22-81 20-136c-2-80 154-74 161-7" id="by"/><path fill="#fff" d="M115-3C79 11 28 4 28-45v-112H4v-33h27l15-45h31v45h36v33H77v99c-1 23 16 31 38 25v30" id="bz"/><path fill="#fff" d="M135-194c87-1 58 113 63 194h-50c-7-57 23-157-34-157-59 0-34 97-39 157H25l-1-190h47c2 12-1 28 3 38 12-26 28-41 61-42" id="bA"/><g id="x"><use transform="matrix(0.05,0,0,0.05,0,0)" xlink:href="#bx"/><use transform="matrix(0.05,0,0,0.05,12.950000000000001,0)" xlink:href="#ag"/><use transform="matrix(0.05,0,0,0.05,22.950000000000003,0)" xlink:href="#an"/><use transform="matrix(0.05,0,0,0.05,33.900000000000006,0)" xlink:href="#bg"/><use transform="matrix(0.05,0,0,0.05,38.900000000000006,0)" xlink:href="#by"/><use transform="matrix(0.05,0,0,0.05,48.900000000000006,0)" xlink:href="#bz"/><use transform="matrix(0.05,0,0,0.05,54.85,0)" xlink:href="#bb"/><use transform="matrix(0.05,0,0,0.05,61.85,0)" xlink:href="#am"/><use transform="matrix(0.05,0,0,0.05,71.85000000000001,0)" xlink:href="#bz"/><use transform="matrix(0.05,0,0,0.05,77.80000000000001,0)" xlink:href="#bg"/><use transform="matrix(0.05,0,0,0.05,82.80000000000001,0)" xlink:href="#aj"/><use transform="matrix(0.05,0,0,0.05,93.75000000000001,0)" xlink:href="#bA"/></g><g id="y"><use transform="matrix(0.05,0,0,0.05,0,0)" xlink:href="#bo"/><use transform="matrix(0.05,0,0,0.05,12,0)" xlink:href="#bs"/><use transform="matrix(0.05,0,0,0.05,15.949999999999998,0)" xlink:href="#bt"/><use transform="matrix(0.05,0,0,0.05,25.950000000000003,0)" xlink:href="#bu"/></g><g id="z"><use transform="matrix(0.05,0,0,0.05,0,0)" xlink:href="#bv"/><use transform="matrix(0.05,0,0,0.05,12.950000000000001,0)" xlink:href="#bw"/></g><path fill="#fff" d="M238-95c0 69-44 99-111 99C63 4 22-25 22-93v-155h51v151c-1 38 19 59 55 60 90 1 49-130 58-211h52v153" id="bB"/><path fill="#fff" d="M4 7l51-268h42L46 7H4" id="bC"/><path fill="#fff" d="M199 0l-22-63H83L61 0H9l90-248h61L250 0h-51zm-33-102l-36-108c-10 38-24 72-36 108h72" id="bD"/><path fill="#fff" d="M88-194c31-1 46 15 58 34l-1-101h50l1 261h-48c-2-10 0-23-3-31C134-8 116 4 84 4 32 4 16-41 15-95c0-56 19-97 73-99zm17 164c33 0 40-30 41-66 1-37-9-64-41-64s-38 30-39 65c0 43 13 65 39 65" id="bE"/><g id="A"><use transform="matrix(0.05,0,0,0.05,0,0)" xlink:href="#bB"/><use transform="matrix(0.05,0,0,0.05,12.950000000000001,0)" xlink:href="#by"/><use transform="matrix(0.05,0,0,0.05,22.950000000000003,0)" xlink:href="#ag"/><use transform="matrix(0.05,0,0,0.05,32.95,0)" xlink:href="#bb"/><use transform="matrix(0.05,0,0,0.05,39.95,0)" xlink:href="#bC"/><use transform="matrix(0.05,0,0,0.05,44.95,0)" xlink:href="#bD"/><use transform="matrix(0.05,0,0,0.05,57.900000000000006,0)" xlink:href="#bE"/><use transform="matrix(0.05,0,0,0.05,68.85000000000001,0)" xlink:href="#ak"/><use transform="matrix(0.05,0,0,0.05,84.85000000000001,0)" xlink:href="#bg"/><use transform="matrix(0.05,0,0,0.05,89.85000000000001,0)" xlink:href="#bA"/></g><g id="B"><use transform="matrix(0.05,0,0,0.05,0,0)" xlink:href="#bs"/><use transform="matrix(0.05,0,0,0.05,3.95,0)" xlink:href="#bu"/></g><g id="C"><use transform="matrix(0.05,0,0,0.05,0,0)" xlink:href="#bB"/><use transform="matrix(0.05,0,0,0.05,12.950000000000001,0)" xlink:href="#by"/><use transform="matrix(0.05,0,0,0.05,22.950000000000003,0)" xlink:href="#ag"/><use transform="matrix(0.05,0,0,0.05,32.95,0)" xlink:href="#bb"/></g><g id="D"><use transform="matrix(0.05,0,0,0.05,0,0)" xlink:href="#bD"/><use transform="matrix(0.05,0,0,0.05,12.950000000000001,0)" xlink:href="#bE"/><use transform="matrix(0.05,0,0,0.05,23.900000000000002,0)" xlink:href="#ak"/><use transform="matrix(0.05,0,0,0.05,39.900000000000006,0)" xlink:href="#bg"/><use transform="matrix(0.05,0,0,0.05,44.900000000000006,0)" xlink:href="#bA"/></g><path fill="#fff" d="M128 0H69L1-190h53L99-40l48-150h52" id="bF"/><g id="E"><use transform="matrix(0.05,0,0,0.05,0,0)" xlink:href="#al"/><use transform="matrix(0.05,0,0,0.05,12,0)" xlink:href="#bb"/><use transform="matrix(0.05,0,0,0.05,19,0)" xlink:href="#bg"/><use transform="matrix(0.05,0,0,0.05,24,0)" xlink:href="#bF"/><use transform="matrix(0.05,0,0,0.05,34,0)" xlink:href="#am"/><use transform="matrix(0.05,0,0,0.05,44,0)" xlink:href="#bz"/><use transform="matrix(0.05,0,0,0.05,49.95,0)" xlink:href="#ag"/></g><path fill="#fff" d="M76-208v77h127v40H76V0H24v-248h183v40H76" id="bG"/><g id="F"><use transform="matrix(0.05,0,0,0.05,0,0)" xlink:href="#bG"/><use transform="matrix(0.05,0,0,0.05,10.950000000000001,0)" xlink:href="#aj"/><use transform="matrix(0.05,0,0,0.05,21.900000000000002,0)" xlink:href="#ah"/><use transform="matrix(0.05,0,0,0.05,26.900000000000002,0)" xlink:href="#bE"/><use transform="matrix(0.05,0,0,0.05,37.85,0)" xlink:href="#ag"/><use transform="matrix(0.05,0,0,0.05,47.85,0)" xlink:href="#bb"/></g><path fill="#fff" d="M85 4C-2 5 27-109 22-190h50c7 57-23 150 33 157 60-5 35-97 40-157h50l1 190h-47c-2-12 1-28-3-38-12 25-28 42-61 42" id="bH"/><path fill="#fff" d="M135-194c52 0 70 43 70 98 0 56-19 99-73 100-30 1-46-15-58-35L72 0H24l1-261h50v104c11-23 29-37 60-37zM114-30c31 0 40-27 40-66 0-37-7-63-39-63s-41 28-41 65c0 36 8 64 40 64" id="bI"/><g id="G"><use transform="matrix(0.05,0,0,0.05,0,0)" xlink:href="#al"/><use transform="matrix(0.05,0,0,0.05,12,0)" xlink:href="#bH"/><use transform="matrix(0.05,0,0,0.05,22.950000000000003,0)" xlink:href="#bI"/><use transform="matrix(0.05,0,0,0.05,33.900000000000006,0)" xlink:href="#ah"/><use transform="matrix(0.05,0,0,0.05,38.900000000000006,0)" xlink:href="#bg"/><use transform="matrix(0.05,0,0,0.05,43.900000000000006,0)" xlink:href="#ai"/></g><g id="H"><use transform="matrix(0.05,0,0,0.05,0,0)" xlink:href="#bx"/><use transform="matrix(0.05,0,0,0.05,12.950000000000001,0)" xlink:href="#ag"/><use transform="matrix(0.05,0,0,0.05,22.950000000000003,0)" xlink:href="#an"/><use transform="matrix(0.05,0,0,0.05,33.900000000000006,0)" xlink:href="#bg"/><use transform="matrix(0.05,0,0,0.05,38.900000000000006,0)" xlink:href="#by"/><use transform="matrix(0.05,0,0,0.05,48.900000000000006,0)" xlink:href="#bz"/><use transform="matrix(0.05,0,0,0.05,54.85,0)" xlink:href="#ag"/><use transform="matrix(0.05,0,0,0.05,64.85000000000001,0)" xlink:href="#bb"/><use transform="matrix(0.05,0,0,0.05,71.85000000000001,0)" xlink:href="#ag"/><use transform="matrix(0.05,0,0,0.05,81.85000000000001,0)" xlink:href="#bE"/></g><g id="I"><use transform="matrix(0.05,0,0,0.05,0,0)" xlink:href="#bB"/><use transform="matrix(0.05,0,0,0.05,12.950000000000001,0)" xlink:href="#by"/><use transform="matrix(0.05,0,0,0.05,22.950000000000003,0)" xlink:href="#ag"/><use transform="matrix(0.05,0,0,0.05,32.95,0)" xlink:href="#bb"/></g><path fill="#fff" d="M175 0L67-191c6 58 2 128 3 191H24v-248h59L193-55c-6-58-2-129-3-193h46V0h-61" id="bJ"/><path fill="#fff" d="M14-72v-43h91v43H14" id="bK"/><g id="J"><use transform="matrix(0.05,0,0,0.05,0,0)" xlink:href="#bJ"/><use transform="matrix(0.05,0,0,0.05,12.950000000000001,0)" xlink:href="#aj"/><use transform="matrix(0.05,0,0,0.05,23.900000000000002,0)" xlink:href="#bA"/><use transform="matrix(0.05,0,0,0.05,34.85,0)" xlink:href="#bK"/><use transform="matrix(0.05,0,0,0.05,40.800000000000004,0)" xlink:href="#bb"/><use transform="matrix(0.05,0,0,0.05,47.800000000000004,0)" xlink:href="#ag"/><use transform="matrix(0.05,0,0,0.05,57.800000000000004,0)" xlink:href="#an"/><use transform="matrix(0.05,0,0,0.05,68.75,0)" xlink:href="#bg"/><use transform="matrix(0.05,0,0,0.05,73.75,0)" xlink:href="#by"/><use transform="matrix(0.05,0,0,0.05,83.75,0)" xlink:href="#bz"/><use transform="matrix(0.05,0,0,0.05,89.7,0)" xlink:href="#ag"/><use transform="matrix(0.05,0,0,0.05,99.7,0)" xlink:href="#bb"/><use transform="matrix(0.05,0,0,0.05,106.7,0)" xlink:href="#ag"/><use transform="matrix(0.05,0,0,0.05,116.7,0)" xlink:href="#bE"/><use transform="matrix(0.05,0,0,0.05,127.65,0)" xlink:href="#bB"/><use transform="matrix(0.05,0,0,0.05,140.6,0)" xlink:href="#by"/><use transform="matrix(0.05,0,0,0.05,150.6,0)" xlink:href="#ag"/><use transform="matrix(0.05,0,0,0.05,160.6,0)" xlink:href="#bb"/></g><path fill="#333" d="M205 0l-28-72H64L36 0H1l101-248h38L239 0h-34zm-38-99l-47-123c-12 45-31 82-46 123h93" id="bL"/><g id="K"><use transform="matrix(0.06172839506172839,0,0,0.06172839506172839,0,0)" xlink:href="#bL"/><use transform="matrix(0.06172839506172839,0,0,0.06172839506172839,14.814814814814813,0)" xlink:href="#bl"/><use transform="matrix(0.06172839506172839,0,0,0.06172839506172839,25.925925925925924,0)" xlink:href="#bl"/><use transform="matrix(0.06172839506172839,0,0,0.06172839506172839,37.03703703703704,0)" xlink:href="#bs"/><use transform="matrix(0.06172839506172839,0,0,0.06172839506172839,41.91358024691358,0)" xlink:href="#bt"/><use transform="matrix(0.06172839506172839,0,0,0.06172839506172839,54.25925925925926,0)" xlink:href="#bu"/></g><path fill="#333" d="M143 4C61 4 22-44 18-125c-5-107 100-154 193-111 17 8 29 25 37 43l-32 9c-13-25-37-40-76-40-61 0-88 39-88 99 0 61 29 100 91 101 35 0 62-11 79-27v-45h-74v-28h105v86C228-13 192 4 143 4" id="bM"/><path fill="#333" d="M84 4C-5 8 30-112 23-190h32v120c0 31 7 50 39 49 72-2 45-101 50-169h31l1 190h-30c-1-10 1-25-2-33-11 22-28 36-60 37" id="bN"/><g id="L"><use transform="matrix(0.06172839506172839,0,0,0.06172839506172839,0,0)" xlink:href="#bv"/><use transform="matrix(0.06172839506172839,0,0,0.06172839506172839,15.987654320987653,0)" xlink:href="#bl"/><use transform="matrix(0.06172839506172839,0,0,0.06172839506172839,27.098765432098766,0)" xlink:href="#bm"/><use transform="matrix(0.06172839506172839,0,0,0.06172839506172839,39.44444444444444,0)" xlink:href="#bi"/><use transform="matrix(0.06172839506172839,0,0,0.06172839506172839,46.79012345679012,0)" xlink:href="#bn"/><use transform="matrix(0.06172839506172839,0,0,0.06172839506172839,52.96296296296296,0)" xlink:href="#bM"/><use transform="matrix(0.06172839506172839,0,0,0.06172839506172839,70.24691358024691,0)" xlink:href="#bi"/><use transform="matrix(0.06172839506172839,0,0,0.06172839506172839,77.5925925925926,0)" xlink:href="#bj"/><use transform="matrix(0.06172839506172839,0,0,0.06172839506172839,89.93827160493828,0)" xlink:href="#bN"/><use transform="matrix(0.06172839506172839,0,0,0.06172839506172839,102.28395061728396,0)" xlink:href="#bw"/></g><path fill="#333" d="M30 0v-248h33v221h125V0H30" id="bO"/><path fill="#333" d="M59-47c-2 24 18 29 38 22v24C64 9 27 4 27-40v-127H5v-23h24l9-43h21v43h35v23H59v120" id="bP"/><g id="M"><use transform="matrix(0.06172839506172839,0,0,0.06172839506172839,0,0)" xlink:href="#bO"/><use transform="matrix(0.06172839506172839,0,0,0.06172839506172839,12.345679012345679,0)" xlink:href="#bj"/><use transform="matrix(0.06172839506172839,0,0,0.06172839506172839,24.691358024691358,0)" xlink:href="#bt"/><use transform="matrix(0.06172839506172839,0,0,0.06172839506172839,37.03703703703704,0)" xlink:href="#bj"/><use transform="matrix(0.06172839506172839,0,0,0.06172839506172839,49.382716049382715,0)" xlink:href="#bN"/><use transform="matrix(0.06172839506172839,0,0,0.06172839506172839,61.72839506172839,0)" xlink:href="#bP"/></g><path fill="#333" d="M30-248c87 1 191-15 191 75 0 78-77 80-158 76V0H30v-248zm33 125c57 0 124 11 124-50 0-59-68-47-124-48v98" id="bQ"/><path fill="#333" d="M85-194c31 0 48 13 60 33l-1-100h32l1 261h-30c-2-10 0-23-3-31C134-8 116 4 85 4 32 4 16-35 15-94c0-66 23-100 70-100zm9 24c-40 0-46 34-46 75 0 40 6 74 45 74 42 0 51-32 51-76 0-42-9-74-50-73" id="bR"/><g id="N"><use transform="matrix(0.06172839506172839,0,0,0.06172839506172839,0,0)" xlink:href="#bQ"/><use transform="matrix(0.06172839506172839,0,0,0.06172839506172839,14.814814814814813,0)" xlink:href="#bp"/><use transform="matrix(0.06172839506172839,0,0,0.06172839506172839,27.160493827160494,0)" xlink:href="#bl"/><use transform="matrix(0.06172839506172839,0,0,0.06172839506172839,38.27160493827161,0)" xlink:href="#bl"/><use transform="matrix(0.06172839506172839,0,0,0.06172839506172839,49.38271604938272,0)" xlink:href="#bk"/><use transform="matrix(0.06172839506172839,0,0,0.06172839506172839,65.37037037037038,0)" xlink:href="#bj"/><use transform="matrix(0.06172839506172839,0,0,0.06172839506172839,77.71604938271606,0)" xlink:href="#bi"/><use transform="matrix(0.06172839506172839,0,0,0.06172839506172839,85.06172839506175,0)" xlink:href="#bR"/></g><path fill="#333" d="M233-177c-1 41-23 64-60 70L243 0h-38l-65-103H63V0H30v-248c88 3 205-21 203 71zM63-129c60-2 137 13 137-47 0-61-80-42-137-45v92" id="bS"/><g id="O"><use transform="matrix(0.06172839506172839,0,0,0.06172839506172839,0,0)" xlink:href="#bS"/><use transform="matrix(0.06172839506172839,0,0,0.06172839506172839,15.987654320987653,0)" xlink:href="#bm"/><use transform="matrix(0.06172839506172839,0,0,0.06172839506172839,28.333333333333332,0)" xlink:href="#bl"/><use transform="matrix(0.06172839506172839,0,0,0.06172839506172839,39.44444444444444,0)" xlink:href="#bm"/><use transform="matrix(0.06172839506172839,0,0,0.06172839506172839,51.79012345679012,0)" xlink:href="#bP"/></g><path fill="#333" d="M24 0v-261h32V0H24" id="bT"/><g id="P"><use transform="matrix(0.06172839506172839,0,0,0.06172839506172839,0,0)" xlink:href="#bv"/><use transform="matrix(0.06172839506172839,0,0,0.06172839506172839,15.987654320987653,0)" xlink:href="#bw"/><use transform="matrix(0.06172839506172839,0,0,0.06172839506172839,28.333333333333332,0)" xlink:href="#bT"/><use transform="matrix(0.06172839506172839,0,0,0.06172839506172839,33.20987654320987,0)" xlink:href="#bj"/><use transform="matrix(0.06172839506172839,0,0,0.06172839506172839,45.55555555555555,0)" xlink:href="#bp"/><use transform="matrix(0.06172839506172839,0,0,0.06172839506172839,57.90123456790123,0)" xlink:href="#bR"/></g><path fill="#333" d="M30-248c118-7 216 8 213 122C240-48 200 0 122 0H30v-248zM63-27c89 8 146-16 146-99s-60-101-146-95v194" id="bU"/><path fill="#333" d="M210-169c-67 3-38 105-44 169h-31v-121c0-29-5-50-35-48C34-165 62-65 56 0H25l-1-190h30c1 10-1 24 2 32 10-44 99-50 107 0 11-21 27-35 58-36 85-2 47 119 55 194h-31v-121c0-29-5-49-35-48" id="bV"/><g id="Q"><use transform="matrix(0.06172839506172839,0,0,0.06172839506172839,0,0)" xlink:href="#bU"/><use transform="matrix(0.06172839506172839,0,0,0.06172839506172839,15.987654320987653,0)" xlink:href="#bj"/><use transform="matrix(0.06172839506172839,0,0,0.06172839506172839,28.333333333333332,0)" xlink:href="#bq"/><use transform="matrix(0.06172839506172839,0,0,0.06172839506172839,39.44444444444444,0)" xlink:href="#bN"/><use transform="matrix(0.06172839506172839,0,0,0.06172839506172839,51.79012345679012,0)" xlink:href="#bV"/><use transform="matrix(0.06172839506172839,0,0,0.06172839506172839,70.24691358024691,0)" xlink:href="#bm"/><use transform="matrix(0.06172839506172839,0,0,0.06172839506172839,82.5925925925926,0)" xlink:href="#bu"/><use transform="matrix(0.06172839506172839,0,0,0.06172839506172839,94.93827160493828,0)" xlink:href="#bP"/></g><path fill="#333" d="M108 0H70L1-190h34L89-25l56-165h34" id="bW"/><path fill="#333" d="M179-190L93 31C79 59 56 82 12 73V49c39 6 53-20 64-50L1-190h34L92-34l54-156h33" id="bX"/><g id="R"><use transform="matrix(0.06172839506172839,0,0,0.06172839506172839,0,0)" xlink:href="#bS"/><use transform="matrix(0.06172839506172839,0,0,0.06172839506172839,15.987654320987653,0)" xlink:href="#bm"/><use transform="matrix(0.06172839506172839,0,0,0.06172839506172839,28.333333333333332,0)" xlink:href="#bq"/><use transform="matrix(0.06172839506172839,0,0,0.06172839506172839,39.44444444444444,0)" xlink:href="#bj"/><use transform="matrix(0.06172839506172839,0,0,0.06172839506172839,51.79012345679012,0)" xlink:href="#bW"/><use transform="matrix(0.06172839506172839,0,0,0.06172839506172839,62.90123456790123,0)" xlink:href="#bm"/><use transform="matrix(0.06172839506172839,0,0,0.06172839506172839,75.24691358024691,0)" xlink:href="#bi"/><use transform="matrix(0.06172839506172839,0,0,0.06172839506172839,82.5925925925926,0)" xlink:href="#bX"/></g><path fill="#333" d="M143 0L79-87 56-68V0H24v-261h32v163l83-92h37l-77 82L181 0h-38" id="bY"/><g id="S"><use transform="matrix(0.06172839506172839,0,0,0.06172839506172839,0,0)" xlink:href="#bh"/><use transform="matrix(0.06172839506172839,0,0,0.06172839506172839,14.814814814814813,0)" xlink:href="#bp"/><use transform="matrix(0.06172839506172839,0,0,0.06172839506172839,27.160493827160494,0)" xlink:href="#bq"/><use transform="matrix(0.06172839506172839,0,0,0.06172839506172839,38.27160493827161,0)" xlink:href="#bY"/><use transform="matrix(0.06172839506172839,0,0,0.06172839506172839,49.38271604938272,0)" xlink:href="#bN"/><use transform="matrix(0.06172839506172839,0,0,0.06172839506172839,61.7283950617284,0)" xlink:href="#bw"/></g><g id="T"><use transform="matrix(0.06172839506172839,0,0,0.06172839506172839,0,0)" xlink:href="#bv"/><use transform="matrix(0.06172839506172839,0,0,0.06172839506172839,15.987654320987653,0)" xlink:href="#bl"/><use transform="matrix(0.06172839506172839,0,0,0.06172839506172839,27.098765432098766,0)" xlink:href="#bm"/><use transform="matrix(0.06172839506172839,0,0,0.06172839506172839,39.44444444444444,0)" xlink:href="#bi"/></g><path fill="#333" d="M101-234c-31-9-42 10-38 44h38v23H63V0H32v-167H5v-23h27c-7-52 17-82 69-68v24" id="bZ"/><g id="U"><use transform="matrix(0.06172839506172839,0,0,0.06172839506172839,0,0)" xlink:href="#bW"/><use transform="matrix(0.06172839506172839,0,0,0.06172839506172839,11.11111111111111,0)" xlink:href="#bm"/><use transform="matrix(0.06172839506172839,0,0,0.06172839506172839,23.45679012345679,0)" xlink:href="#bi"/><use transform="matrix(0.06172839506172839,0,0,0.06172839506172839,30.80246913580247,0)" xlink:href="#bs"/><use transform="matrix(0.06172839506172839,0,0,0.06172839506172839,35.67901234567901,0)" xlink:href="#bZ"/><use transform="matrix(0.06172839506172839,0,0,0.06172839506172839,41.851851851851855,0)" xlink:href="#bX"/></g><g id="V"><use transform="matrix(0.06172839506172839,0,0,0.06172839506172839,0,0)" xlink:href="#bo"/><use transform="matrix(0.06172839506172839,0,0,0.06172839506172839,14.814814814814813,0)" xlink:href="#bq"/><use transform="matrix(0.06172839506172839,0,0,0.06172839506172839,25.925925925925924,0)" xlink:href="#bp"/><use transform="matrix(0.06172839506172839,0,0,0.06172839506172839,38.2716049382716,0)" xlink:href="#bu"/><use transform="matrix(0.06172839506172839,0,0,0.06172839506172839,50.61728395061728,0)" xlink:href="#bn"/><use transform="matrix(0.06172839506172839,0,0,0.06172839506172839,56.79012345679012,0)" xlink:href="#bN"/><use transform="matrix(0.06172839506172839,0,0,0.06172839506172839,69.1358024691358,0)" xlink:href="#bw"/><use transform="matrix(0.06172839506172839,0,0,0.06172839506172839,81.48148148148148,0)" xlink:href="#bT"/><use transform="matrix(0.06172839506172839,0,0,0.06172839506172839,86.35802469135803,0)" xlink:href="#bj"/><use transform="matrix(0.06172839506172839,0,0,0.06172839506172839,98.70370370370371,0)" xlink:href="#bp"/><use transform="matrix(0.06172839506172839,0,0,0.06172839506172839,111.0493827160494,0)" xlink:href="#bR"/></g><g id="W"><use transform="matrix(0.06172839506172839,0,0,0.06172839506172839,0,0)" xlink:href="#bR"/><use transform="matrix(0.06172839506172839,0,0,0.06172839506172839,12.345679012345679,0)" xlink:href="#bj"/><use transform="matrix(0.06172839506172839,0,0,0.06172839506172839,24.691358024691358,0)" xlink:href="#bq"/><use transform="matrix(0.06172839506172839,0,0,0.06172839506172839,35.80246913580247,0)" xlink:href="#bN"/><use transform="matrix(0.06172839506172839,0,0,0.06172839506172839,48.148148148148145,0)" xlink:href="#bV"/><use transform="matrix(0.06172839506172839,0,0,0.06172839506172839,66.60493827160494,0)" xlink:href="#bm"/><use transform="matrix(0.06172839506172839,0,0,0.06172839506172839,78.95061728395062,0)" xlink:href="#bu"/><use transform="matrix(0.06172839506172839,0,0,0.06172839506172839,91.2962962962963,0)" xlink:href="#bP"/></g><g id="X"><use transform="matrix(0.06172839506172839,0,0,0.06172839506172839,0,0)" xlink:href="#bS"/><use transform="matrix(0.06172839506172839,0,0,0.06172839506172839,15.987654320987653,0)" xlink:href="#bm"/><use transform="matrix(0.06172839506172839,0,0,0.06172839506172839,28.333333333333332,0)" xlink:href="#bV"/><use transform="matrix(0.06172839506172839,0,0,0.06172839506172839,46.79012345679012,0)" xlink:href="#bj"/><use transform="matrix(0.06172839506172839,0,0,0.06172839506172839,59.1358024691358,0)" xlink:href="#bW"/><use transform="matrix(0.06172839506172839,0,0,0.06172839506172839,70.24691358024691,0)" xlink:href="#bm"/></g><g id="Y"><use transform="matrix(0.06172839506172839,0,0,0.06172839506172839,0,0)" xlink:href="#bv"/><use transform="matrix(0.06172839506172839,0,0,0.06172839506172839,15.987654320987653,0)" xlink:href="#bl"/><use transform="matrix(0.06172839506172839,0,0,0.06172839506172839,27.098765432098766,0)" xlink:href="#bm"/><use transform="matrix(0.06172839506172839,0,0,0.06172839506172839,39.44444444444444,0)" xlink:href="#bi"/></g><g id="Z"><use transform="matrix(0.06172839506172839,0,0,0.06172839506172839,0,0)" xlink:href="#bL"/><use transform="matrix(0.06172839506172839,0,0,0.06172839506172839,14.814814814814813,0)" xlink:href="#bq"/><use transform="matrix(0.06172839506172839,0,0,0.06172839506172839,25.925925925925924,0)" xlink:href="#bq"/><use transform="matrix(0.06172839506172839,0,0,0.06172839506172839,37.03703703703704,0)" xlink:href="#bj"/><use transform="matrix(0.06172839506172839,0,0,0.06172839506172839,49.382716049382715,0)" xlink:href="#bN"/><use transform="matrix(0.06172839506172839,0,0,0.06172839506172839,61.72839506172839,0)" xlink:href="#bu"/><use transform="matrix(0.06172839506172839,0,0,0.06172839506172839,74.07407407407408,0)" xlink:href="#bP"/></g><path fill="#333" d="M136-208V0H84v-208H4v-40h212v40h-80" id="ca"/><path fill="#333" d="M185-48c-13 30-37 53-82 52C43 2 14-33 14-96s30-98 90-98c62 0 83 45 84 108H66c0 31 8 55 39 56 18 0 30-7 34-22zm-45-69c5-46-57-63-70-21-2 6-4 13-4 21h74" id="cb"/><path fill="#333" d="M144 0l-44-69L55 0H2l70-98-66-92h53l41 62 40-62h54l-67 91 71 99h-54" id="cc"/><path fill="#333" d="M115-3C79 11 28 4 28-45v-112H4v-33h27l15-45h31v45h36v33H77v99c-1 23 16 31 38 25v30" id="cd"/><g id="aa"><use transform="matrix(0.04938271604938272,0,0,0.04938271604938272,0,0)" xlink:href="#ca"/><use transform="matrix(0.04938271604938272,0,0,0.04938271604938272,9.481481481481481,0)" xlink:href="#cb"/><use transform="matrix(0.04938271604938272,0,0,0.04938271604938272,19.358024691358025,0)" xlink:href="#cc"/><use transform="matrix(0.04938271604938272,0,0,0.04938271604938272,29.23456790123457,0)" xlink:href="#cd"/></g><path fill="#333" d="M67-125c0 53 21 87 73 88 37 1 54-22 65-47l45 17C233-25 199 4 140 4 58 4 20-42 15-125 8-235 124-281 211-232c18 10 29 29 36 50l-46 12c-8-25-30-41-62-41-52 0-71 34-72 86" id="ce"/><path fill="#333" d="M135-150c-39-12-60 13-60 57V0H25l-1-190h47c2 13-1 29 3 40 6-28 27-53 61-41v41" id="cf"/><path fill="#333" d="M133-34C117-15 103 5 69 4 32 3 11-16 11-54c-1-60 55-63 116-61 1-26-3-47-28-47-18 1-26 9-28 27l-52-2c7-38 36-58 82-57s74 22 75 68l1 82c-1 14 12 18 25 15v27c-30 8-71 5-69-32zm-48 3c29 0 43-24 42-57-32 0-66-3-65 30 0 17 8 27 23 27" id="cg"/><path fill="#333" d="M137-138c1-29-70-34-71-4 15 46 118 7 119 86 1 83-164 76-172 9l43-7c4 19 20 25 44 25 33 8 57-30 24-41C81-84 22-81 20-136c-2-80 154-74 161-7" id="ch"/><g id="ab"><use transform="matrix(0.04938271604938272,0,0,0.04938271604938272,0,0)" xlink:href="#ce"/><use transform="matrix(0.04938271604938272,0,0,0.04938271604938272,12.790123456790125,0)" xlink:href="#cf"/><use transform="matrix(0.04938271604938272,0,0,0.04938271604938272,19.703703703703706,0)" xlink:href="#cb"/><use transform="matrix(0.04938271604938272,0,0,0.04938271604938272,29.58024691358025,0)" xlink:href="#cg"/><use transform="matrix(0.04938271604938272,0,0,0.04938271604938272,39.4567901234568,0)" xlink:href="#cd"/><use transform="matrix(0.04938271604938272,0,0,0.04938271604938272,45.33333333333334,0)" xlink:href="#cb"/><use transform="matrix(0.04938271604938272,0,0,0.04938271604938272,55.209876543209894,0)" xlink:href="#ch"/></g><path fill="#333" d="M190-63c-7 42-38 67-86 67-59 0-84-38-90-98-12-110 154-137 174-36l-49 2c-2-19-15-32-35-32-30 0-35 28-38 64-6 74 65 87 74 30" id="ci"/><path fill="#333" d="M110-194c64 0 96 36 96 99 0 64-35 99-97 99-61 0-95-36-95-99 0-62 34-99 96-99zm-1 164c35 0 45-28 45-65 0-40-10-65-43-65-34 0-45 26-45 65 0 36 10 65 43 65" id="cj"/><path fill="#333" d="M85 4C-2 5 27-109 22-190h50c7 57-23 150 33 157 60-5 35-97 40-157h50l1 190h-47c-2-12 1-28-3-38-12 25-28 42-61 42" id="ck"/><path fill="#333" d="M135-194c87-1 58 113 63 194h-50c-7-57 23-157-34-157-59 0-34 97-39 157H25l-1-190h47c2 12-1 28 3 38 12-26 28-41 61-42" id="cl"/><g id="ac"><use transform="matrix(0.04938271604938272,0,0,0.04938271604938272,0,0)" xlink:href="#cg"/><use transform="matrix(0.04938271604938272,0,0,0.04938271604938272,9.876543209876544,0)" xlink:href="#ci"/><use transform="matrix(0.04938271604938272,0,0,0.04938271604938272,19.75308641975309,0)" xlink:href="#ci"/><use transform="matrix(0.04938271604938272,0,0,0.04938271604938272,29.629629629629633,0)" xlink:href="#cj"/><use transform="matrix(0.04938271604938272,0,0,0.04938271604938272,40.44444444444445,0)" xlink:href="#ck"/><use transform="matrix(0.04938271604938272,0,0,0.04938271604938272,51.25925925925927,0)" xlink:href="#cl"/><use transform="matrix(0.04938271604938272,0,0,0.04938271604938272,62.074074074074076,0)" xlink:href="#cd"/></g><path fill="#333" d="M121-226c-27-7-43 5-38 36h38v33H83V0H34v-157H6v-33h28c-9-59 32-81 87-68v32" id="cm"/><g id="ad"><use transform="matrix(0.04938271604938272,0,0,0.04938271604938272,0,0)" xlink:href="#cm"/><use transform="matrix(0.04938271604938272,0,0,0.04938271604938272,5.8765432098765435,0)" xlink:href="#cj"/><use transform="matrix(0.04938271604938272,0,0,0.04938271604938272,16.691358024691358,0)" xlink:href="#cf"/></g><g id="ae"><use transform="matrix(0.04938271604938272,0,0,0.04938271604938272,0,0)" xlink:href="#ck"/><use transform="matrix(0.04938271604938272,0,0,0.04938271604938272,10.814814814814815,0)" xlink:href="#ch"/><use transform="matrix(0.04938271604938272,0,0,0.04938271604938272,20.69135802469136,0)" xlink:href="#cb"/><use transform="matrix(0.04938271604938272,0,0,0.04938271604938272,30.567901234567906,0)" xlink:href="#cf"/></g></defs></g></svg>